<mxfile host="app.diagrams.net" agent="Mozilla/5.0 (Windows NT 10.0; Win64; x64) AppleWebKit/537.36 (KHTML, like Gecko) Chrome/131.0.0.0 Safari/537.36" version="24.7.16">
  <diagram name="第 1 页" id="8LA8rQIFjiqcl1zyNudL">
    <mxGraphModel dx="2261" dy="866" grid="1" gridSize="10" guides="1" tooltips="1" connect="1" arrows="1" fold="1" page="1" pageScale="1" pageWidth="827" pageHeight="1169" math="0" shadow="0">
      <root>
        <mxCell id="0" />
        <mxCell id="1" parent="0" />
        <mxCell id="QPquwE3QrhXbGZ9cCPQu-2" value="" style="text;whiteSpace=wrap;html=1;" vertex="1" parent="1">
          <mxGeometry x="630" y="130" width="60" height="50" as="geometry" />
        </mxCell>
        <mxCell id="QPquwE3QrhXbGZ9cCPQu-3" value="" style="shape=image;verticalLabelPosition=bottom;labelBackgroundColor=default;verticalAlign=top;aspect=fixed;imageAspect=0;image=data:image/png,iVBORw0KGgoAAAANSUhEUgAAA8gAAAHpCAIAAADRX4LvAAAgAElEQVR4Aex9eWBU1fX/sCgQ2QRZJQG1WNyItlasCiNasVYhWhdUzIgri/zcla9gXRFHqlixli6iRcStaOgouFUJYitIwH2pgiCYmbhijSRNJsn8bE74zJn7Zs4s92XIJGf+SM6759177v2cc+/9vPvue88T2fELN/52HJn/ZW0kEgmFQmaeHcdyXhut2t2B8f/+2yAp51WcFWeOAJflyJG1GlduIak4cyQ1rjgacmzYaBVnxZkjwOU2HlceYNHGgQAOJMho6IDC4ZKxstEqzoozR4DLGlepo6H9KHWsNK5Sx0rjKnWsNK5Sx6oVxJUSa+7uqCx3g1bg+GhTGyVtrwGI3oEBIHJs2Gi1HwFkvePEobBEQ+OKg2nTQ+W8irM9zps2bUoa7YqzPc5UQtbi2UOWwuFwdeMPh4Yga8PhcHl5uZEFh3JeG63aBciWHpS9oDgrzhwBLsuRI2s1rtxCUnHmSGpccTTk2LDRKs72OJeWliaduxVne5ypBDnaXcRZiTV3WVTOmgOiJhsltWsAohdsAESODRutiwMKakuCXCu1y+GSsbLRKs6KM0eAyxpXqaPRHP1IiTXHH3Kuz/u6FYTfZIjK5ODosUPSrQKARMbKRqu3wABy0tuFinPqWGlcpY6VxlXqWGlcpY6VxhVhpVtBeMxAznV+pcQarowR5G6vAygHS8bKRqs4K84cAS5rXKWOhvaj1LHSuEodK42r1LHSuEodq1YQV0qsubujstwNWoHjo01tlLS9BiC5fsVsNEf9awCi/gUgcmzYaHWcBMh6x4lDYYmGxhUH06aHynkV54xxVmLNoYvKGnBRLBolJSIARI4NG60OZADZcuqVvaA4K84cAS7LkSNrNa7cQrLt4KxbQXjMQM51vqHEGq6MEdpOx6Zma3tj3K8fPGJwyLFho1UiwmDWDzxxMKzQ0LjiUNr0UDmv4myPc2lpadJFBMXZHmcqIWvxrMSauywqZ80BUZONkto1AMn1K1ejOepfAxD1LwCRY8NGqxMzQE5KYhTn1LHSuEodq0RxpcSaYwg51+cFJdZwZYyQqBvgpFx3PBpCgrbXAET9C0Dk2LDR6sQMkJXwcSgs0dC44mDa9FA5r+Jsj7NuBeEYQs71+VeJNVwZI+iAEgOHbo1gcMixYaPViYrBbLUZQPaC4qw4cwS4LEeOrNW4cgtJxZkjqXHF0ZBjw0brIs76gRhyhPlXfm1+c7wonmqgdg1P5PqL4o3mqH8NQNS/AESODRutjlcAOelX7hTn1LHSuEodK42r1LFqBXGlxJq7OyrL3aAVOD7a1EZJ22sAooQPgMixYaPVfgSQlfBxKCzR0LjiYNr0UDmv4myP88aNG5NGu+JsjzOVkLV41q0g/CZDVCY3RI8dUq7vATIapO01AFH/AhA5Nmy0Lt56Q21JkGuldjlcMlY2WsVZceYIcFnjitDQhxd5VEDO9flXiTVcGSPI3V4nDA6WjJWNVnFWnDkCXNa4Sh0N7UepY6VxlTpWGlepY5UorpRYcwwhK7FugiLXgYBHSUjUDXCathdQyFjZaHXgBsiW70mQvaA4K84cAS7LkSNrNa7cQlJx5ki2prjSt4IYnqXDXOdXumId161J3kjQmjo2tV8HbiMOcr1jG81R/xqAqH8BiBwbNlodJwGyXhhzKCzR0LjiYNr0UDmv4pwxzkqsOXRRWQMuikWjpEQEgMixYaPVgQwgW069shcUZ8WZI8BlOXJkrcaVW0gqzhxJjSuOhhwbNloXcVZizV0WlWX3uOiAqMlGSe0agCihByBybNhoNZ4BshJ6DoUlGhpXHEybHirnVZxzF2fdCsJ9BznX530l1nBljKADWQwc+oEYBoccGzZanSAZzEm2YynOqWOlcZU6VhpXqWOlcZU6VoniSh9e5BhCVmLdBEWuAwGPkpCoG+A0bS+gkLGy0erADZAt1w5lLyjOijNHgMty5MhajSu3kFScOZKtKa6UWBuepcNc51e6Yh3XrUlWy1pTx6b268BtxEGud2yjOepfAxD1LwCRY8NGq+MkQNYLYw6FJRqtKa50K4gRGHSY6+OzJ7TjV97423EUqqio4DLXchXO2bBhA2RD4HkNVSgUMrS88IqKCq7lKpSjdgEFxwqJEAwtB1NxBkoQNK4AhRE5SCfB0GpclZeXEzIcCoCmcQUojMhBOgmGloOp45WBVSgU0rgCJkbkIF3jKhRSXve/6KBI4EMKgsStfqQr1nGvl3TF2oQl168gjfbI63CtaUWEGq7tNQJA4xmAyLFho9V+BJAt12hlLyjOijNHgMty5MhajauMkVRizaGLyhpwUSwaJSUiAESODRutDmQAWYkIh8ISDY0rDqZND5XzKs6KM0eAy4kiR7eCcJQg5zrfUGINV8YIiboBTsp1x6MhJGh7DUDUvwBEjg0brRIRgGxJnWUvKM6KM0eAy3LkyFqNK3sk9eFFjiHkXJ9/lVjDlTGCDigxcOjr9hgccmzYaHWiYjAn2Y6lOKeOlcZV6lhpXKWOlcZV6lgliisl1hxDyEqsm6DIdSDgURISdQOcpu0FFDJWNloduAGyrmhyKCzR0LjiYNr0UDmv4qw4cwS4LEeOrG1NcaVbQXhUQM51fqUr1nBljNB2OjY1W9sb435doWdwyLFho21NE6T2IxYyUTHXJ8hoSxolOdo1njlcMlY2WsVZceYIcLmFxJUSa+6UqCy7Rzt2FKmI3rLnYFihoXHFoZT7oI1WcVacOQJc1rhKHQ3tR6ljpXGVOlatIK6UWHN3R2W5G7QCx0eb2ihpew1AdKUNgMixYaPVfgSQLTe3yF5QnBVnjgCX5ciRtRpX9kjqVhCOIeRcn3891HPC4XB14w+HhiBrw+FweXm5kQWHcl4brdoFyJYelL2gOCvOHAEuy5EjazWu3EJSceZIalxxNOTYsNEqzvY4l5aWJp27FWd7nKkEOdpdxFmJNXdZVM6aA6ImGyW1awCiF2wARI4NG62LAwpqS4JcK7XL4ZKxstEqzoozR4DLGlepo9Ec/UiJNccfcq7P+7oVBDcfYgRycExS7EGu36qIbU2SncF6y4/DJceGjVZxVpw5AlzWuEodDe1HqWOlcZU6Vs0RV7oVhOMPOdf5lRJruDJGkIeb5uhgZF7txrhB387B4JBjw0ar8cxgTnKRqTinjpXGVepYaVyljpXGVepYaVyljpWLcaXEmsMeleVwdNEBUZONkto1AMn1K1ejOepfAxD1LwCRY8NGq+MVQNaHRDkUlmhoXHEwbXqonFdxzjmclVhzl0VlDfQoFo2SEiAAIseGjVYHUIBsOeXLXlCcFWeOAJflyJG1GlduIdl2cNatIDxmIOc631BiDVfGCG2nY1Oztb0x7tctKAwOOTZstEpEGMy6BYWDYYWGxhWH0qaHynkVZ3uc9ZPmHEPISqyboMh1IOBREnRAMQBR/wIQOTZstDpRAWRdseZQWKKhccXBtOmhcl7FWXHmCHA5UeQoseYoQc51vqEr1nBljJCoG+CkXHc8GkKCttcARP0LQOTYsNEqEQHIltRZ9oLirDhzBLgsR46s1biyR1K3gnAMIef6/KvEGq6MEXRAiYFDt0YwOOTYsNHqRMVgttoMIHtBcVacOQJcliNH1mpcuYWk4syR1LjiaMixYaN1EWf9QAw5wvwrvza/OV4UTzVQu4Yncv1F8UZz1L8GIOpfACLHho1WxyuAnPQrd4pz6lhpXKWOlcZV6li1grhSYs3dHZXlbtAKHB9taqOk7TUAUcIHQOTYsNFqPwLISvg4FJZoaFxxMG16qJxXcbbHeePGjUmjXXG2x5lKyFo861YQfpMhKpMboscOKdf3ABkN0vYagKh/AYgcGzZaF2+9obYkyLVSuxwuGSsbreKsOHMEuKxxRWjow4s8KiDn+vyrxBqujBHkbq8TBgdLxspGqzgrzhwBLmtcpY6G9qPUsdK4Sh0rjavUsUoUV0qsOYaQlVg3QZHrQMCjJCTqBjhN2wsoZKxstDpwA2R9awSHwhINjSsOpk0PlfMqzoozR4DLcuTI2tYUV/pWEB4VkHOdX+mKNVwZI7Sdjk3N1vbGuF/fgsLgkGPDRtuaJkjtRyxkomKuT5DRljRKcrRrPHO4ZKxstIqz4swR4HILiSsl1twpUVl2j3bsKFIRfS0aB8MKDY0rDqXcB220irPizBHgssZV6mhoP0odK42r1LFqBXGlxJq7OyrL3aAVOD7a1EZJ22sAoittAESODRut9iOAbLm5RfaC4qw4cwS4LEeOrNW4skdSt4JwDCHn+vyrxBqujBF0QImBQ7dGMDjk2LDR6kTFYLZa+5e9oDgrzhwBLsuRI2s1rtxCsu3grA8v8piBrMS6CYpcBwIeJaHtdGxtr+F6OtR4BixyX7DRKhEByLpizaGwREPjioNp00PlvIqzPc5KrDmGkHN9/tUPxNDQYf7N2ovEDcNq1wBEP9QCQOTYsNHqBwgActKPNSjOqWOlcZU6VhpXqWPVmuJKPxDD/Q451+d9JdZwZYwgD3MtpGN79KcIKAKKgCKgCCgC7iEQQwViD3Kd8MW2JpwTPCetOsstkrUu8jrdY42bDzEC+TImKfagJdyq8Hii7outnR4pAoqAIqAIKAKKQHoIyLNqS5j3jfbIXMVGq1t9ONRpIRllZmll4/ZI1oADJjZIynmNQJeHANRHBUVAEVAEFAFFQBFIioA8q7rOc/StIHE94jrOZCUtfmVUTM5raJVYG+g1HRowOU9qCY6XhwBnnTVFEVAEFAFFQBFQBBIhIM+qrs/7+vBiXEe4jjNZyRqvU2Id161JXvVlrBwbRcjOs9EaduUhwKiVHioCioAioAgoAoqAgIA8q7pO+JRYx/WF6ziTFZl9GfzKqJic19AqsTbQazo0YHKe1BIcLw8BzjpriiKgCCgCioAioAgkQkCeVV2f93UrSFxHuI4zWckar1NiHdetumIdHxZNVQQUAUVAEVAEWisCWSbWBGPWCJ/hNbVrAOIWoVdibQDbdJgTAScPAfEbpqmKgCKgCCgCioAiEA8BeVZ1i3gZlnOCb6RVZ7lFstbFLRlp1dlFu0qsDeSbDnPC8fIQEL9hmqoIKAKKgCKgCCgC8RCQZ1XXibVuBYnnhIjrOJOVrPE6JdZx3apbQeLDoqmKgCKgCCgCikBrRSDLxFofXowbSDlPrEM7fuWNvx1HoYqKCi5zLVfhnA0bNkA2BJ7XUIVCIUPLC6+oqOBarkI5bdmuPATEjVdNVAQUAUVAEVAEFIG4CHg8HmIX2eEbpaWlynNA5yDkOq/TFeu4nUtXrOPDoqmKgCKgCCgCikBrRUBernJ9JVW3gsQNJNdxJiu6FaQJ7awBYXg3J+zKQ4DRIj1UBBQBRUARUAQUAQEBeVbNdcJnNDwneE5adZZbJGv14cUo1G050OUhIIqRSoqAIqAIKAKKgCKQDAF5Vm3LfMNATiapNloXCW5adXbRrm4FMZBvOpTDwkUHGObTsisPAUbJeqgIKAKKgCKgCCgCAgLyrOo6sdatIHF94TrOZCUtfmVUTM5raJVYG+g1HRowOU9qCY6XhwBnnTVFEVAEFAFFQBFQBBIhIM+qrs/7+laQuI5wHWeykjVep8Q6rlv14cX4sGiqIqAIKAKKgCLQWhFQYs09m+sEl7clEsker1NibSDfdJi1KxvDfFp25SHAKFkPFQFFIGMEgsFgQUGB1+utrKxEIX6/Py8vb9GiRfn5+WVlZUj3+XwFBQXBYJBSKisrvV6v3+/HCYJQVlZmlCacrCpFQBFwFwF5VnWdaOpWkLjucx1nspIWvzIqJuc1tEqsDfSaDg2YnCe1BMfLQ4CzzpqiCCgCGSNA3Br8OBAI5OXllZWVEW8OBAJUcmVlZVFRUX5+PlIoIw7lCiixlvFRrSLQrAjIs2pLmPeN5stcxUbbQp4ly8X2egj3cDhc3fjDoSHI2nA4XF5ebmTBoZzXRtvG7cpDgBGOeqgIKAKWCAQCAY/HEwgEDJLta/xR4WVlZUVFRYsXL/b5fJQSCASwgE0leDweIuV0gs/nmzlzZl7jj69/08mg8paV1+yKgCKQFAGPJ0qKwGEgKM8BFDbMTc7bCnhdNIbkpsraVgAEwoWEnGivEuuko6SeoAi4i4DP5yts/IE3RyKRQCCAXSL+xl9ZWVlhYSHtBvH7/XQyFrkpC7g13zqCFWt+srtN0NIUAUUgEQJZJtYbN25Muqyp/IrTM5mb2WhdxFm3gsTvX+TI+LrG1JZwS0iJteAgVSkCzYEArVVjBZpMBIPBwsJC2mbt8/kCgQDfH+Lz+fx+v3OnNda5IUQiESLW8+fPz8vLS3H3SHM0U8tUBNomAvKs6vq8r28FiRtmruNMVrLG65RYx3Vr9p4eNcyn5Xh5CDBK1kNFQBGwRwB7OTjrBY0OBoNerxcL1X6/H5zbudMaK9kGsc7Ly/N4PAZ3t6+5lqAIKAJJEZBnVdcJnxLruB5xHWeykha/Miom5zW0SqwN9JoODZicJ7UEx8tDgLPOmqIIKAI2CGBrtd/vN4gv7QAJBALYIkKbrVesWEF7QtIi1lQOirKps+ZVBBSB1BGQZ1XX5319K0hc17iOM1nJGq9TYh3XrbpiHR8WTVUE2iwCtCxNe6m5TIAQjS4qKsKzhrR6PW3aNOLHaW0FKWv86W6QNhts2vCdhUCWiTU1M2uEz0BV7RqAuEXolVgbwDYd5kTAyUNA/IZpqiKgCGSEgLFKXVZWlpeXx2l0YWHh8OHDjRda01tEyCB/HpHLxlYQvMfasJhRrTWTIqAIpIGAPKu6RbyMCuUE30irznKLZG0reM2fEmsjWpoOc8Lx8hAQv2GaqggoAukj4Pf7OUWmAoxEn8+Hd4PQCZw9I8XT+MMrQSKRSCJiTYvcuiEkfXdpDkUgQwTkWdV1Yq1bQeL6yXWcyUrWeJ0S67hu1a0g8WHRVEVAEVAEFAFFoLUikGVirQ8vxg0kJdZNsOQ6EIZ3s3ZlY2NXHgKMkvVQEVAEFAFFQBFQBAQE5FnVdZ6jxDquL1zHmaxkjdfpB2IIavOv/JpxF18kbhhOy648BMSNV01UBBQBRUARUAQUgbgI6AdiOCfRL00CDZmbGVol1sAtRjBgitE1HrSEgFNiHXdk1ERFQBFQBBQBRSADBLJMrIla5ATfMFiQXGcbbQtZuLRpr+6xjt/1CNP4usbUlnCrQom14CBVKQKKgCKgCCgCaSEgz6otYd43miNzFRttK3g7R1pYudheJdYG8k2Hcji66ADDfFp25SHAKFkPFQFFQBFQBBQBRUBAQJ5VXSfW+laQuL5wHWeykha/Miom5zW0SqwN9JoODZicJ7UEx8tDgLPOmqIIKAICAvj8uPMcevMd3pS3YsUKr9dLh/hL32LkZ0JlCPytfNwo/3Cjsw5ICQQCvASkq6AIKAKWCMizquvzvj68GNdfruNMVrLG65RYx3Wrvm4vPiyaqgi0bgT8fn9czkp0ORAIEA8mYh0IBIAGfXmxsrISKRB8Ph++I4NECGDJMAFVXMH4aozP5+PViJtFExUBRSBFBJRYc6ByneDytkQi2eN1SqwN5JsOs3ZlY5hPy648BBgl66EioAgYCASDwYKCAmM52TikL7mA9SYi1uDHhgn6/otArEG7A4GAYZoOQfSpDs7vxSi3dmKuKYpAZgjIs6rrRFO3gsR1k+s4k5W0+JVRMTmvoVVibaDXdGjA5DypJTheHgKcddYURUAR4AgEg0Gv1xsMBhNx1srKyqKiorKyMjqBmG5eXt6Kxq0ggUCAPmxO6YlWjkGduWmS8WlGEPdEBB1nUkZeH9m606imKAKKQCIE5Fm1Jcz7Rs1lrmKjbSHPkuVie5VYG15rOpTDsYUEnDwExG+YpioCikAsAvRlcqKnxl9wZRDfRCvWsUXGHCUi1lQmrYj7/X5aio5LrJ2L2fyL6GRM161jQNcDRSAjBORZVYk1QJU5ko22hfArtJSEtFqkxNpAr+lQBrGFOF4eAuI3TFMVAUVgBwJY9/V6vQUFBdiwQVtE+KaLuMTaYOH08OKOsqP/ExFrv9+fl5c3fPjwFStW+Hy+YDAYiUScHBrkPlpiPEnY5B3vdE1TBBSBOAjIs6rrxFq3gsTxQSTiOs5kJWu8Tj8QQ1Cbf+XXm7eQF5jLQ0DceNVERUARSIQAlq6dFDkusfb5fNgALfDaRMR62rRpK1asoK0mqFLcFetIJIJrAIPN06GzwihQBUVAEUgdgSx/IKa0tDQcDucE3zBIklxnG20L4Vc27VVibaDXdCiHRQtxvBLr1IdLPVMRMBBwUlVjxRoU1uv1VlRU4P162GO9ePFi0OJE7Fl+eBF7uFE3gVjDFk4moaysrLCwkBa8DZUeKgKKQFoIKLHmlKglfGGa1yfpRYjM3GSti7xOt4LE73Tky/i6xtSWcKtCibXgIFUpAikigIVqMGkIoNpgwMYea+LBixcvxtK106jAuVEscjm3glAdnGciixJrQKGCImCJgDyruj7v61aQuP5yHWeykjVep8Q6rluz975Dw3xajpeHAKNkPVQEFIG4CODBQUPrb/xRIvHpsrIyg1jTgrTzUUJeVLrEOi5HV2LNIVVZEWgmBORZNdcJnwFaWnwjrbxyybK2hTzDZtNeJdYGek2HOeF4eQiI3zBNzQiBhoaG+sZfRrk1U4tGIJUV60AgQPuYDWJNn2vxer0Ct3aLWGMvChbUIeT6HmvqXw0NDS06ULRybQABeVbNXWIdd/7KCZ5jBJ1cZxuti4ReibXhtaZD2T0uOsAwn5ZdeQgwSs7pw4aGhrq6up0179bX19fV1cUdmHIaVa08IZDKijWtXvt8Po/HU1BQ8NFHHxHNxZtD6EUiXq/37LPPBt8VBMroXIfeKXusW0j/2lkdXDuCIgAE5Fk1M2Ld0NBQ0/iDFQhZ2ApSW1tLk1d9fT3skpAW30grr1yyrG0h/MqmvUqsDfSaDnPC8fIQEL9huZlKEz+NDnz25XJztAwL1fX19SQ3hxUtUxHYuQhg3m3uDmU0k/cv6mLGCXqoCGQZAXlWtSTWtEBDvayh8VdaWtp8n9oGoU80f+UEzzECQK6zjdZFQq/E2vBa06HsHhcdYJhPy648BBgl5+IhDT2RSAQrajQTY/3YeQnubjM5lVdi7S62WlrLQQBxDoaNlOarJFg1mSCLzWdOS1YEUkFAnlXTItaYvyKRSE1NTW1tLWIed0GblVjX19eTXZpDndNlWnzDQE/Oa6NtIfzKpr1KrA30mg7lsGghjpeHgPgNy6lUzLU0HmE5DdM/UpqpWZxMc7mZzGmxikDWEMAcH4lE0NEwAdPE39z9i69S8zpkDQQ1pAgYCMizalrEmnciEFzexRoaGpp1KwitWIfDYWqjEuus8Tol1ka3ajrMmgMM82nZlYcAo+QcOqQLfbBnjERoAlTOkQLnZCZgIQGUAiaUWGcGqeZqaQigf9GdHyexxg1r9AK3moCeSwXyJT0l1m6BrOXYICDPqqkQa5opcFuVKsOJNXoBJpe05n2jdTyvs+Ta2lpOrI0ezfMaxdJhKu2Nm1EuWda2kIVLo11ynQ2tEmsDvaZDAybnSS0h4OQhwFnnXEkxNn5wYs3XAGgQMUYKmzaiQAhGaTvxAUqjJnqoCGSMAIU359M8hYIcTzVkbMWZkazgr3GCXrgagOjhTkFAnlVTmfcxf1EXo6tHItYU/DRn8bnMFb6B+z/UlcgKLxknAFiuRSIXUmkvPx+yXLKsbQ3EOrTjV97423EUqqio4DLXchXO2bBhA2RD4HkNVSgUMrS88IqKCq7lKpTTlu3KQwBCPBcFPtPTMIEhCUyaD0z2baTREOWgAkjhRIQnqqwI5BYCmPjBZSnajZg3Di3byCd1VICXGTeRn6CyIpAFBDweD7GL7PCNd955R3kO6ByEXOd1umIdv6vmxBVVqyHW/Aqb/IEUmo/pLy706Q6auzOxQdPjsoq4ifEDSFMVgRaDAN9xQZWiSOa9DF0MDNjdaDdKMw7prpTeEWoxIdN2KyLPqnFXcGkm4psuIpEIBTPFeX19fW3jD6szmMtWrlyZ8VtB+Jq0MRuif3EmY8xxGdul4OAlO8PFRtsaVqyBSBsHAjikEjQtxPHyEGC0qMUe0ojgnFMxNJBA5ADjESfcGTcNHAK7TbDpDdZ54UREcA5XqawItEwE4gYtKDXXonNhj7VNqFPJwAS9mFJ41zPOwaEKikD2EZBnVSexpjivq6sziDXNa5hZSMu7GGV85ZVXIpGIkdfZaqddcHQwNz5nQYYWNeGdmmudRlsIzzEqJtfZRutie3XF2vBa06HsHhcdYJhPy648BBglt8BDGlkw1vAOT7UF26ZBigYLUGpM1RDSaiNZ50apJlRI3IkfY1lahvRkRWCnIID+BYFXA1Mvohr9CCtbvK/x3sHLSSSjEJzAS4jbv5xdEnlVUASyg4A8q3KCy8OV3r9RW1vLK4kuxt8nzftUfX39pk2boOV5DZnbhYrKj8sZYNrQoo9TIYYWJUOIazeVvHLJsraF8CuAkEF7lVgb6DUd5oTj5SEgfsN2dioWnrEqhhphLEAKjVx0iBEBAsa1uJM0CkkkUHZwd+M0lGncRjcOjVx6qAjsXATQv9BNqD68K6GG6HG4j4xcdMGJNxvw609klwUqKm5GXhnOtoniGymyFdUqAu4iIM+qoVCIM2Meq85vK1Kc0zm1tbU1NTWUQiVQV6VuYrNiHTcv5i9sQQFKvM45wXNQcxLkOttoXST0SqwNrzUdyu5x0QGG+bTsykOAUXILOcTM7WS0tMRl1BPnk4D7WRDiztxGIXEP+Sq4cYIx8WdswihWDxWBZkUA0zY6CzfnTASfRkasXtv3LzLnNIqSqW7aubiPVN7pCMizqkGseW1BnXkiegGn3RTz1OmI5qY176N8Ys/8RX5cRTLVCgrbXZEAACAASURBVOmGkJldKkTOa6NtIfwqLayM9iqxNtBrOjRgcp7UEm6RyEOAs84tIQUTLQRMtLjINlRYNsOlNngAUuSmxT2NCuFMAoVABW3cEnC+CopAC0EAfQeC0b/4dI7w5icb52fcLurORslUGno6OnLGVjSjIuAuAvKsGgqFaEkIF6XUX/gea4p5mjKwfMNXjhH2KX4gpqGhwck3MElxyk5QQNXQ0BCX7gOxnOA5qC0Jcp1ttC4SeiXWhteaDmX3uOgAw3xaduUhwCi5hRyizxuTOhau+KhEdTbmZucJctPIopMZoyYo0KgDpYMEyFZUqwi0BATQWTDxI7ypesahs3c490bL7UI/Mk5Dx4FF9EFwbud+MKMQPVQEsoyAPKuCWBvzV11dHc3dcTtUfX09ZnZ0B2pX0k+aU4ECsQZ1Ro+jLNSR465nA1LUCimG4LSLE+S8NtoWwq/QUhLSapESawO9pkMZxBbieHkIiN+wnZ3Kxx3M/XyQwuyLmhpZQH9xgiBgiHHmIlXc9TkakmgEFApXlSLQ0hDgQYspnAvO/uXMknqj0L/iFkuJznPIIrebukU9UxFoVgTkWRVbQbBQTUFeX19PK8fOjkCv3sNOaGMmkok1+o6T4GL+ImLNt1by+UtmMrK2hfAcw91ynW20LrbXQ/UIh8PVjT8cGoKsDYfD5eXlRhYcynlttG3crjwEGOHYQg5xa4zqQ6MMhg8wAKO2Gc/BmNr5uEOFk1HjL1cZddBDRaDlI8DXmzH1otNhTYs3hF/f8vRUZP4AlnE+2eJdGydk3J1RggqKQDMh4PFESRE4DITy8nIi0JRCdJmo7fbGH60Q43yctn379urqaiM9HA5v3LgxKfsinkO2UAIZra2trWr8cbukojOVXwGxFHHm53M5LSSjMZRWNm6PZCXWwMQGSTmvcSHhafG/jh07du/evVOnTqhpx44d99hjjz59+lDirrvu2rNnz913371Pnz577LFHjx498vLy9thjj969e/dq/HXu3Nnj8XTs2LFXr14dOnRAOekKPXv27N27Ny9ht9126927d9euXdu3b9+uXTsy16NHj65du6ZbuJ6vCOwUBDp16tS5c+d27drB+m677da3b9/dd9+dEnfZZZeePXv26tWrT+MvLy+vV69evXv37t69e9fGX/v27T0eT/fu3Xv27IlC0hV23XXXPfbYw+g4vXr12n333bt27dqhQ4fOnTvvscce3bt379GjR8eOHcloulb0fEUgOwhgKg+Hw5yw0vxLxJpTakrZvn17VVUVZaEUnjcRsSZbqcz7vLRwOAxiTXnp0DgnKZVMxS5Hg8tyXhutwXO4UcsWybVy0a5uBYl/3Uu+jK9rTHXemsHJcl4brYu3KlBbEuRapWjX+So6ukFmvN2TP4xYU1MTDoexFQTryljochFnvk7mbK+xWO6iXQ610y7XpoizkSUVD6pdA7Rs+re+vt7j8dDNExu7Rj+iXkNdBv6ljkOJCGl6+Anxj3PofhHyGhClFVcoHIUY7UVlcIIrdlGaIdjgTCOSUSAdynXW/stBk7Gy0TYTzvSoH+9luNWDdmErCJ4ToDinbyvSC/X49kJktG9voi5GJTv7VyoRK9eqmXBuC198VGKNyI8RNOBi4IhEUpmoMAzxG8R0DY3SaFLHF1+BM8YpYwtaKnZROBfomp6n8LvksEsnoFY438auTsyA0cAZ6RDaAs7bt2/3eDzbt2+3nKhqamqcV54GOab51ZhliVhTkBMPoLmfvCD7KHWtc+JHe+OqUi8Z0QJBzgu7OJ8Lcl4brdrNaZzxoRbMX0aXIf9SjzNCmh5PrK2tNeYvAJIorjZt2pSIaKKrkl1nZahwmunStYu8wmyl8Qz3JfIRTjD8q8QayMQIBkwxusaDtkAIeKtTby+NOOjn9JohbO7EqjYNE4Qzhgznds/U7fLaJnrNEEZD9S+HSwdQjoYcGxloQ6GQx+OpqKiwx5lfu2JhjH8SGR0NAp1G/Qjxb99eukzlaDg7r317eT25zO3ydMiZjRvpTp8wB0HtAgrZRzbaZo0rIseYvzjJJrvEdzFnUXtpxTocDsftYkJcxX140TCK9sYt3AZJOS/swqdckPPaaFuBXSXWPFSishwWrcDx0aY2Sm611xhuaECpra2l7R+GUQxGlIu0xtiRwURFJdAuN8MiqudczzbOzMAulSAjKWs1rrgXZKxstFnG+b333vN4PO+//769XYptvpRFG0KM+0Kcc9MJiGdOuDOLWKoDlWN4wei89u3l8cBlwy5XkYz2OlVyXhuttpejbYOknLf5cKadykb/wtWsYRfRTtMK1ZnPZamg4STW6F8g97CLa1esTwmUnazLSMpa2OUNgSzntdG2ArtKrBEnMYIcFq3A8TGtjUQs21tbWwvOaszccYcqsk633miFwBjLUL10J0gMdons0glOIgKLJKRrF9llJGWtxhVgbE0TxooVKzwez4oVKzLzL02iiGejp1A842VeHED0hfr6esSzkT1dnKl3U2fnb+clu0jHIAC7vGIky33BRpsZzva1UrvcyzYelPO6jjNWiOn+Ku8j1ImQwuOZ01xnX+BQCL3M2AqCPkvXw067dAL6l1CyxrPhgqRYuRhXSqyd4P8vJcsdG5XIUbs1NTW4vMbQQLOsTGFpXRl5gQMEPpAhkYS4WGHEoaezMTBRFkz8cfPy8tO1i7xyybLWxY6N+pCgdg1Asunfhx9+2OPxLF68ODP/UtASdcZcTvMu+lpc/1JG+utKe6koQpJqYtilE3h3dsWu4Tsdn52AKM7AxIhJpJMQV8v7EeYySsRTDZTdwJnOoUknbsmwnqIWNUEH53ad/StpX0jRLuppCEZ7udamZDlvZuMk1U0uWda6aFeJNQ+VqJw1B0RNNko5aheDEYYDGiCwJm00E4dYh0OKISTt2Hyyh/WGhoZExJqodo7iLDxoIrdI1ro4oBjuU7uRSGT27Nkej8fv92eGM1FYg1hjRicWmwhndMOk/chwHA75p5ipf1EPon7H7VKKcSmbsV1eMioDQdZmhjMVLpcsa9UuHJRbhA90lmaNusYf0WWs1FDTnPGME+TYSKQ1+hE6rNGbyC7fAQKoE5Ws8QyIIMhYudh/lVgD8xghaw6IsZqzK+XO1wxh9pVXrC33OuNBE75IRmMT2aXhiWsJcPWvEXjOCQMnyFjZaF0cyFDbFujfSZMmeTyeKVOmZNZePvUa8cwJQdyLLszEmfnX+T05qgA+RW7QbsMLmbU3FQ/KUad2uSNkrGy0rQZnkGNa6OGr1FARpM5+hCvJDJCsr6/ftGkT9TL0X3w3EZ2db+XinrXvKXKdW41/AVrW2qsfiCGozb9Ze5G4YbgF2qW5M5UPANGoRLs7qF21tbX02nwqhP7yJmfc3pqamqqqqu3bt1NpRKNhFFrni/rpnIzt5soL6jnISevs4ovx1a7z+2pjxozxeDy//OUvLXGuqqqieKbVa7oopTfBV1dXV1VVOfsX3JFK/8XJ+MhFbW0tlUxW6ATezal3cy0vxLK9TiRRuPZfQEFCuv5FdhlJWZsT/jU6hdAizFZ8NiEZ81d5eTl6HzAkQSjZOQKjE5WWlobDYT6Xofehs9fU1Kh/gXZaOCNXKj5yMZ6VWBvINx3KznPRAYb5FmiXurfcsWnKpxGHhgyMRPjQKzgun4Yzay+ZwJeuOMMgPGtqariWD5R0QmZ2U8krlyxr21RcEZhyXGVMrVoUzsOGDfN4PPvvv7/Tv+gszqmX8KG/mPIx6SLmqVvxXhZ34k8LZ3RVItbV1dWUgsrQIdfGNepsL2+U7CMbrdpVnIEAYpVSEsUVzRH8MpKmMPQFEuiT5iicC4lKdtoFq66treXEGp2IDwvU09Pqv5nViueCrHYBRer+DYfDuhUEdwliBEIzJin2wHlLCHo5r412p9yaodvN9MUpui9G95fpRhXtZo77tSpsyQiHw9gZghtnBJeMhtFe3NemvDTSAXbcFqd3jRF9N947hpPTsotcJMh5bbRGe9Uubo8aUFju4Mwyzt26daPPhjvt0v5pCl2ayNFSHu3UywgNOpn+GlsyeBaUQ0K64xWekqR4Rmen0nB/nGZ951YrWE/XLjJqPwIUSaPdGVep5231OPP+gs+4UE9BGAMuxDNy8W0hljjTu7Ngi0zgrSD8OSV6mIHOpK6n/Qi42USsnNfSv3y2UmINf8UIWXNAjNUWucea+n8oFKIeTg924PGOuIM+Jni8qdpoJg5TxxkjHWZxuqwHUwdHIetEuykXzEFI3S6yQJDz2mhd7NioLQlyrdQuh0vGKl1teXl5Xl6ex+Pp0qVLRUWFc4LExSqPWEQ7Kga74LjgvnH7IDKS4LSLE6hkWESHohTYpUPS4mTj4hZlQkhqF2caAuwa6XQoazWeOWgyVjbanMCZYhUrLBSxmMUQ7TyukIi8wDPjeIZdzubB2skL6GLUx9HLcgJnQMSRNBJxKEddK2ivEmv4OkZo9Y6Paa1I6Kl7Y0DhnZ8GoERY0eiQSEsVkLXoYGQUgyNxa7otDp6NwQglGysEvMkp2uVZIMt5bbRoL2xxwaZkOa/abT6cn3766YEDB3o8ngEDBixfvhz9CBYx0TpXyzDBx6XO6BRxtSifBKddnED9CGt4mOyJuNPtaep6/DNPZB1alGYIsl2+xmNklCNW1mo8czBlrGy0OYEz7yb0jVJ61B6rP4mwogmFazNuL388kdcHMnkBh2SU11D7ERxhE7Fy3oz96xyBlVjDXzFC1hwQY1UkuHRm9jsY9XbYpWeW5SmfqkqMQUZS1iLQQT44eyYigrvhaSGZol2jTDqU89po0V616xyqDExyBefrr79+yJAhHo9nr732uummm9CPqDkUz/wC1Zhc0Wqjvcasb2iRC4JhF+mgGpRCxQaDwYKCAtq+0rt3706dOrVv33633Xbr2LGjp/FXUFAQDAbhIzo/EAhEIhG/3w9t0nguKSnx+XyUnV5HiIpRi/x+f15eXllZGdJRt5KSEiRGIpHKykqv10t1SGQ3GAwWFhauWbMmdUJfVlZWWFhIjUV7yS5q4vF4CgoK1q1bR6ARRPTX6/VWVlbS+fBRWVlZfn4+bxRKLisrKyoqQha0a9SoUdu2bePtNWSnf30+HzmipKQEVfL5fJSR4PL5fKgVLxBgwguGdyKRCIH5/PPP84x+vx8mUHIwGPT5fNSoysrKoqKisrIy0paVlU2bNg0l+Bp/QAPpTsHZXn/jz5m3vr7+7rvvhiNqa2vXrl07fvx4qo/gX0w63LrTLrRoL1Ig1NXV0SUon79Iu3nz5qT3dRPFM5Ug2HWigSqlklftcrjSwlmJNYcuKssgtqmAo/GFDygGt46LFUaluFoALWsJZ5AP4hzEQrDrlCeiWB1QOBRJ0WhT8UzI8HhOCys5Yp3a0aNHDxgwwOPxDBo0aMyYMYZdWhWmClBeSgkGg0OGDAEbIA/Onj07Ly9v0aJFe++99/r163FxSxRqy5YtVA6xIoMJGXbR5LKysmHDhq1du5a/A57Wp+mvc7MH5yJUZ7/fD+rmFAxmDNPhcLikpARt9Pl8RIup/lQOsTROYak0J868VoniORgMer3eLVu2pE6sI5EI2J7Rj4hZljX+CgsL161bV1hYyIlmIBAAyzTy+v1+NJx7PxgMFhUVeb3eFStW0A6iFPE0/MsJbklJyahRoyorK30+H6LC5/N5vd6CgoKSkhJCg8PuNMpTqFFkIhQKkXdwWUXasrKy4cOHU0yuWLEiPz+fHMeJNTH+adOm4ULCIPQIFS4464n6UOuM2JgyZcpdd91Fl3x+vz8cDq9du7a4uDgYDB599NH8IpD7CPMXN50orrgHcT66ZyQSIWLNvzEM7apVq5J+tTEtu6hA3FqlpVW7HC4jrriKRw6lK7E28Gk6lEFsUwFnrFhjAgajdWLFRyWnliMeV0slc7uwhbwYjDBCQUVC3JJxjqxtU/4lTIyJGUA5hwyustS2epxramo6NP5++EBM58afgTMPbMQk3YQJBoP77LMPmFBJSQmoyYknnvj000+TI4ip5OfnYwWXEx04i9tF/2poaCgrK/vRj360du1a3mexHN7Q0ODc7MEpLJFjTp2NNVduV+bfRN38fj8xJxA+LI7yJV7CyufzccKXSAaGZWVlidgqrK9Zs0Y+h9ang42/wsJCgViD3aZYT/IgyCX5jij4tm3bhIsBox+B8VMJRKw/+ugjr9dLS+/EqisrK2ntfM2aNYgTElAHwhmLwTiNX+oQNyXWTk0OBAJer9eoMxUCYr1t27ZRo0bhDgNKjpsXWgihUAhXYpSISqIfVVZWHnfccX369OnevXuXLl3IxcXFxa+//npBQUG/fv3Wr18fiUTOPfdcRAjl5X0BFkng8WyoYBf9C9sUaSsIf8QfqpUrVyYdRQ3/JrJrpNMhapWBVu1y0NJCUok1hy4qyyC2nYCjMaKuro4PKHhqipau6UVFGCkMpisjaWhpRKOiaHYnu1i0Jg9RrYy8Uec1SjbatuNfgMb9i0QSbJCU87Z6nJctW3b44YcPHjzY4/H079//0EMPffzxxzm8mIP55EqJDQ0Ny5cv79Wr1zPPPEMke/bs2XRZO3HiRCyFEpF96KGHiouLqeRAIIB1uEAgQHyiS5cuZWVl1I8uvvjiG264oX///vn5+YsXLy4oKCBiTSf7/f76+vo777yTTDg9yIn1mjVrDjroIJmJgrWA+iCu1qxZY+x8wOaHVIg1kDTYfKK4oiVkZ4tQTiQSWbNmzbhx4yorK4k7ovKo85YtW4ihGuQSK9bAnF9vkH+3bNmCTRGRSIQvaVOtnGSRFrbD4TDs8tpC5v0XhJ60RKxnzpyJixa+WL5ly5aCggJqZipXPtQomOB2aVUYkYkWJbrgQToHipi3vF2H/Aus4l63UBfA/IXpaerUqfPnzy8uLq6srGxoaPjPf/4zduzYZcuW0dQjx0aiuEJs4INllELWnXd+cOH6A63HW0FSv3CC02FXyCu3SNYmba/ahS8MJJVYA5kYwYApRtd4YAwo/AQ5r402y4GO/u/88hOu6emj5cargjJDg2g6np2i8YjeRkJ8glbyMFrZICnnzTLOHK62EFdtp73Tpk07//zzjz32WI/Hc9RRR5133nmTJ09G8+nhJFw0IiYR4Q0NDZMnTz668Tdp0iRMY7SqRzfQia2uWbNm+PDhtB4J0hMIBEBZHnrooT333HP9+vV1dXUTJ04E7Vi/fv3gwYNff/315cuX5+fnr1u3jqzfcccdSYl1ZWUlrf/Rwi21y+C4PJ5lYo1qG/f6vV7vRx99xE3wixBaz3ZubibSxhkk3wwAJOELCOSFuFzN4/Hk5eVhfRcLw3SlAWKNogyB1sLnz5+PnQ+0zwTUedu2bfPnz//h5gZoLupPteJ+NwoHzlhsxglErIuKimbOnPnDJhPaAQJS6/F4Ro0aVVRUREvOxFa5FjLtIy8sLHzllVe8Xi/SaasMDiEUFBRgexJV5oedGDNnziwqKqKdIUASVSXB5/PNnj1b8BGNzyDWyEW48S1G69ev79atW6/GX8eOHTt06FBSUrJly5bCwkK6Gtxll10OOOCAYDBoT6zpLVWYGalW6MukxRRmNBl930jHIfyLFAhyXhutzoMA2RhzeDrJBs76gRgCxPwrvwy8jXyAAF9yqa2tpRfj04ZL4/X1hBXdMjZxDIdlJA2tUTLhzKvBrRh5DdM22jbiX46YfggAaNhEjpF38ODB11577ZQpUzwez3nnnXfdddfts88+MIRgpm5FH3nBZynotC1btuy9997Dhg3btGkTPpezZcuW4cOH06pecXFxSUnJl19+OXLkSFrlLS4unj17Nt1qJ4JC8Uy0vqamprjxR8/+lpWV7bPPPvPmzevWrVsgEECVZs+eDYbkFIgz0UdtNm3alIjXUkbUwShzwoQJ//rXv2gnLq2bUv2p5kuWLKmurqb14w8++MBpYsKECbSOW1BQQM/2AVhqL+WlDQmkKi4udrYFKVTPTZs25efnezyecePG5eXlUZXC4TDR4lmzZjm9QFc1tMEApZGAitFOnunTpxcXF6OelHHq1KkFBQXwL/HguE2mMoEnyuHjFY8NOmHJkiUjR4784IMPEDOUPnv27OLiYiNiiZWi2tBu2bJl1KhRtD2dslPKG2+8EQ6HKeR4fbZs2TJy5MhNmzbBRx6PB2H50EMPjRw5kpqDWEL22bNnT5gwATgjnQvl5eUU+UjEYXV19ZIlS0aNGvXNN9+8/vrr48aN++abb6iLTZky5e9//zv/nBmyU+SjvUg3BOc4SR0WH3gyPkZGMxq0ONkoNgO7KEHOa6PlcQVzEGxKlvO2ArtKrBEnMUKrd3xMa5PRXyLWNPTQCMWHDxkrWUufcuWlUfmonitfukJpEORatYKOjZaSoO01AHFOkDhBxip17UsvvXTwwQdffPHF99xzzw/vsb7jjjsuu+yyoUOH/vOf/4QtEijmqxp/6F+kwisdiGhSIlFPWnsjulNdXT1r1qzZs2eDV23ZsmXw4MGBQIA6V3l5+ezZs38g9zU1Neeffz7o3dq1a3v37k37hjltItYFQsArTHSQTq6urt60aRNnbAad5TjPbvxRUcXFxRMmTEBemAuHw3GJNUxwOkiNve+++xLtRQFB5PWP60FOyzilAxenonheQA1iPXz48OOPPx7YlpSUkFxSUkLU+csvvxw1ahTIOvhoUioJu9u2bSsuLuaeoqYBZ9QKTSZiTRnpasFg/1iJpywIOeM0gwEbxNo42ePx5Ofnv/fee6NGjeIZt23bNm7cuDVr1qBFdLkFTMLhcFI0aHyGyxAzVAiI9bZt2+hyqFOnTn379u3cufOuu+66tPF30kkn0RUXv6KLG+2AkQTgTIfEm6mLUYvApPkJQskbN24UtLBu2EV60rzAmWeBLGt1HgRQ6eKsW0Gci/r/SyFA4+saU9vgrRlsnsYWEcJHxiqRlu6R0RU87pfR9g++GwRbQZy+SFSyTa1gpQ36F203BMWZA5I6GlOmTJk9e/aRRx5ZWlrq8XiWL19+3HHHXXHFFVdddRUvEDFPJVPnoi2h2OZL77DjN9ZpWwU26dKS6g8vlFixYgW9Hi4YDB544IHLli2jJyJCoRDttaivr58yZcq5555LdVi/fn2PHj3otXfYHcs3yyZtL1ETJ69CCraj8Hv3Pp+vuLh427ZtXq935syZ/PVz8lYQagVxKXpxm7H5hNoVCoXipscd27F9gm+bpvrj6TrjwUe8JZBOwzaJhQsX0g5slAlfE5LYoc63wvNa4QQIfr+fyLSxHwYl81v22KACLS2BG28FgYuT+te5JcNwUEFBgdfrNTajB4NBuuRLtKkG4UG0nj+ZSu112kWLnFtBgBUhibfNIAZoh4bP5yspKfn73/8+duxYAgTBSYXLaHCcac6ifoq5jOpM+z2oQOwMSVRyaWkp9z5vI5d1PgIaiZCkE2y03L8wByGtkpVYA7cYQQbRRQfEWG3ZhB7EGoMFVV7GKq4WoxKtguNNI1QgtM693RyuuCXjBBtt2/QvoDMEGyTlvK0Y57q6uh49emzatKlr167ffPONx+PZunVrv379Vq5cOWDAAANhItPAqq6uDs/w0S7bysrKUY0/bM8lxlBUVIR9pfRw27Rp0yZOnFhfX//dd9+ddNJJpKV+hEcep06dOmnSJDK6bt26/Pz8NWvWEHEEj8SOZ9TKqDNtyXVqOXvm/jWIJvbR0gNzZJf2EH/88cd42zQ1k56w5DvIuV2D8nLGRug56TI/Jy8vb8WKFXgHNpUs0EH+9hXi0MTqsMeaoAOAwA11pqcbE1E6ZAQpTItYGzhHIhGsQJNFcFAyVFJSQg/FUj0FMPE6FDqT3l345ptv0k5xDinJtFCN5pPg9/vz8/OLioqMd4bw0xAbPNGQ6a0gZAi7w+kc2s1CV4nUnPbt2/fu3Ztua5SUlDz99NP0khBEOwqHj5BiCERw8TgQtPwTMHQpi1mMzklUshJrYMiFXL+QUGLNvRmVE3UDnJHrjkdDSEilvUSs+eegUsmbqGQam0CsjVVwuuhvaGhogzgbrsFhIiRtvIDCFWdA4QrO999//8knn/zuu+/uu+++kUjE4/nfSDtw4MCysrLjjjvu0UcfhTlaseavj6SOZnxphW5qY12QFiaHDx9OS31UZ6KDgUCAetPy5cvB3h599NF+/frRyRdddNEll1xCi238hWvcIuhdIjSIQBvbpp3silICgQD4HK4ZaMet1+tFJckonUm7HQgl/iZpOofXCgSUQ5rWijVf5QWSgJoXS9sPKAUtIgHEmqgtXsyC7FQyZ/mc2JGW02K4wCDWcR9h5P3XeEgUK9bGiwuBZHFxMZ6SNMDkOBOTxrdy6PCFF17w+Xy4wENjsWKNFFojJ1hotZ7fgcFp5AvhrSAEEWf5zrX/2bNng1jTa2f4irUBIIeLtxdV4gJwxquxSEsP8eOFesSqsRQlrEnrW0E4vJCBM1IgyD6y0fKFAJiDkFbJSqyBW4wgg+iiA2KsttQVa1cIrnOs4Vf5WLQGfaehMNc7WE74t63Fcxbae/jhhwcCgQcffPDss88GsR47duyCBQseeeSRX/ziFzwwjBVroiAej8cgXsRikYi3EdO0XVtbu2zZsq5duxJ7pon/6aefJmq7++6745syEydOnDp1qpNYE2UhRoIvmMQdCcFEoaWlQa/XW1RUNH/+fNoeUFlZif5L5BgLogUFBfS0Hy03ErEjsg7CRzfWDdpkaCORiMEFCdhQKGTwJwCOOiMFFBkEKJUVa0BkEOsf9hsUNv4Mbo2VY+5BvAOEaoWa8K8zGsQahBv1N+IZhdAJnFjz+wkcSZBLOCjuNRJvEZ1Jr3EkJ/L6GMSa8AR9p9ca5jX++CYQegWh8x3YvGSSEVfOb3PSfy0QAQAAIABJREFUw5ROYk0r6yWNP14TjokzNmCa5i/YxYSFE+jpCGP+ArcWSkbUoSinwO0aWpuS5bxGXKldYXuSgaQSayNamg4NmJwntalAT51YYxwBYoQksWT5Kp/oBc33GLbaFM46kCFskk42cg+Vtc2N87PPPnvIIYdEIpHJkyffc889INa33HLLJZdcEolE9tlnn3/+859oLPUOuc6kdfYvKoQen6K5nxeL3hQKhegeESZ+3BSKa5cvrMblWPRS5FGjRpEWTAU0hVO0008/HV8noepR+diEQBtCCgoKPv74Y/7JazB4NIrTQUo0iDWvedxVZ/6eCjQNZJfQcDJFssVXrH0+3+LFi+nFc/ROQHp1CYwSAngbHT3IiIZAwNujS0pKiKzPnDkTq/h0lUV5QfdRWxRijJOcfHNiTefDYiAQiOt9FMu1xoo17e8nu4ALy8n0Fr8PP/yQMCGai2LRu+EsAg0L9twuzwWZ7PJ7LCiKb9pGbFx88cV4RtN4KoBfLdAzP7ACAfMX9SNKN6YzemwRPc5YSJJbJGube7xCM52CEVf8BLnONtpW0F4l1jxUorIcFq3A8dGmNkqutJeGEowsZCIcDtfU1IAQGHM/v8qnwYtyYcOJdmx4SvaRjVbjGSBjyucpXE4F5xNOOGHBggWRSOSggw56/fXXQaxffPHFww8/PBKJzJ0798wzz0Sx1DuSlkxvi0dXQvb6+nraUkUzPTogXanS+UQIkJd3w6R2U1+nQZUgaP8FFNnEmd98yKZdNDazfoQ9P3Kdm2m8wjcZeCuwxEOJoVCIP1vP2bNBytENKWOiFulWEANt4Bw3PbO4QlGJvIAT3BqvlFgD0hghaw6IsdpSt4KkPpBh5ka7iFgTacZfDDrGVT5yQXAr0FEgCepfAxDFGYDIsZFU++yzz+63334/LFdXVFT07NmTiqU91lVVVe3atSN+PGDAAOLcqdul77rhfBKITBOxdl7Z0iq1PgTMQUvqQb2QAFwyVqnPCygQglyyrG0+u3jmB/XkxJr6ES5KafUH7wCR65xIqw8vcqgh5/p8pMQarowREnUDnJTrjkdDSHCxvVhs5iXzxTOsq9FKGx74MKpEh4ozYJF9ZKNtvolKrlWrtHvMMcc88MADkUjk0UcfPfnkk8l9RKwjkciIESNeeOEFWrQ+7bTT4NzUV2Kc164NDQ10gUqlgV7zvVXajwC1HJM22lYZz8JlRmttr7OLEb2mLZF8/qIuRqGVWeQosUbH5EKuj1dKrLk3o7LcSVrrgBJtv0NKMdAx6KAAQhJX+XgHAt1QU5wBFAkp4mzkSp2WOTOqXQMTOSZl7aJFi0aMGEEFXnDBBfPmzSMZxPrKK6/8v//7P0rcd999n3vuOViXSyats39RdtpjTTJWqTk/0LhKC2ecbAiyj3Re4HDJWNlomw9n3EHlfQdzFuzSdGack1mLdCsIjxnIuT5eeUI7fuWNvx1HoYqKCi5zLVfhnA0bNkA2BJ7XUIVCIUPLC6+oqOBarkI5ahdQcKyQCMHQcjAVZ6AEQeMKUBiRg3QSDG0bj6u999774YcfJmQGDhy4atUqkj2eppH2scceGz58OCX+/ve//+lPf0qycyREOgmKMwDR8QpQQNDxClAYPQXpJBjaRONVMBjkKhSiOAMKA0mkp4VzKBRDNVFIruOsK9a4RooR5KtPXLnG5NlxIOe10bZYu8Z2Dr7xg9pLKXgRwQ6o9AuXQKJJyPUrdaM9crS32HgWbn8LLZo5cybe/LB69eoDDzwQaGDFOhQK9enTh5apIpHIr371q7vvvptOE0o27kjw+z+UFytt/AlgWG9lOBto8GZC1n4EKFKPK2SBIOdtNXGFtWdqL90XQiKhQZ1OvwScYmzIkSNrW0FcKbFGnMQIrd7xMa21eGjSeDE+isXcz5E0hiqdIAEXBCUEgIJHDhIh2GibY+B+7bXXevTogc+azJgxA1s+8FYQsjtx4sR7772XGvLmm2926tRpw4YNifoCrlF5e50Tfzgcrq2tdfYvwKVxBSg4kkiEYKNtjriiism1UrtwX6J+hBMMJI29VdBi/kJG2hDiej/SrSAcYciu40wlw78wZAhu2VVibQDbdJg1Bxjmc8gupny+vxPNwdxPUz7SDSGH2ouay3W20eoECZDTnSB5xqR5mwPnww8//C9/+Qu8v//++7/22muoFV+xfvLJJ4877jiobrvttqKiImed6SFgTPAomTIinQ4NLQqH4NaEgQLVrgEFHSrOgEWOSRutK/0X8xe/ycNrRenGs/iu+1cfXkTAcMF1nKlw7l9uDrJbdpVYA9IYIWsOiLFqsXLsnJjTKjnd9vIHpOISa7ylqKamJrMb61R/twI9LTRcGbgNi3SYLs68EDmvjVbba4nz9OnTzzrrLPTB1atX0xv3UCwn1g0NDd26dfvss8+gPeaYY+6++27uQXzMhaZ/lIwsWGmjN1fyvDiHC9qPgIaMlY1W+xFAdkYsV1lq7XGm61K8/hW3erj3+RyHyrvej5RYA1suuI4zFc79y81BdsuuEmtAGiNkzQExVnOBWNMYhOW0urq6uNQZ6wEykrLWfgA14MWh2gUUJLg1oBjFtgWclyxZMmTIkK+//hp04fLLL7/xxhs5FJxYRyKR8847D1urI5HIe++916lTp1WrVtElKO9cWJk2kET/IiuGlpsmWf0LTGSsbLQ6XgFk9AWewuWdhTPeVE09CFewVDfUyuhfqLnr/Ui3ggBbLriOs+FfbovLbtlVYs1RjcroYNGkWMktB8SW2qIf5sNIhOt72nZGX0/EN1+oRThHRlLW6kTFw0PGykarOGeM87///e/dd9/9+eefpxLIC3379v3www95mQaxfv755w877DB+woMPPlhYWPjtt9/yfkQ9jh75BSHgL/9CCbL31b8AqsUSPtmDslb9m4p/qTcZ91d5F2toaADOmL94yYozRwNY8UTINtpWgLMSa0RCjCCHRStwfExrU1spx60xIy8NVbS0xj/3SqfJSMratomzAS8OZaxstIozQE6LeDU0NPz85z+/6667kD0cDi9atOj4449HCgkGsY5EIvvuu+/q1atx2g8fS5oxY8bEiRONGR1Xs3T5amiRXfa++hdApeVfnotkxdnAJFcWmDB5Oe+v0pxF85dBu43Gaj/igMh9wUbbCnBWYs1DJSrLYdEKHB9taqMktxefRKZpns/u9FaQcDjsVJEJuWRZ29Zw1vbysJRjw0brFs5nnXXWlClTjDofc8wxjz32GE803gpCqlmzZk2aNIlk2usZDofHjx9v7CHBVhAl1hxS2ftu+ZdbJFntGpjkBLFGJ8JsxVtB94ho/uL3hfg5kF1vr24FAbZccB1nKjxr/ddDlsLhcHXjD4eGIGvD4XB5ebmRBYdyXhut2gXIlh6UvVBTUwP/0hU/7NbW1m7fvr2qqgophiCXLGvVvxxMGSsbreKcAc6XXXbZ2LFjecZwOPzKK68MGTLESAyHwx5P00iLfrRly5aOHTt++eWX9Apq6r+ff/651+udO3cuSoC2qqqquroa6YYge1/9y+GSsbLRKs4tE2dah6a6VTX+UE/qX5jUZO83h39LS0uTzt3NYZcQyH5724hdJdboYjFCGw+42sYfEAGxxjTPVdu3b894ym/jOANGCCBeSIEgY2Wj1YEbICed5AjnG2644YgjjqisrOQZw+HwOeecc9tttxmJTmJN/WvixIm33XYb9ana2trq6uqqqqr3339/zz33fOCBB6gQWqhOsVZOu0jRuAIUNj1Fzqv9CCBbRqwlzlVVVbT2TPXBtEXLQHy2Qv+iMy3t8pI5FAIaSqwNoOgw18cr3QrC7z9EZfJu9Ngh5fqtCqNBvL104wy3z+jMUChEKdj0iTtoPK9RrOWORr2ly/FUnN1CwzKuZs+eXVhYWFFRwesTiUQ+/PDD7t27f/vtt0a6sRUE2z3Xrl07aNAgejElvV2npqamoaFhzZo1AwcO/Nvf/kbPKVJpNt63bK++LhMOlb2gOAMoy5HfBmei0cb8hUktrhbVtrEr502k1a0gAJ8Luc6vlFhzb0blRN0AZ+S649EQEqi9GH1oRudPIoJY0zsKQLJ34gAq+8hGqxMkDw8bJOW8uYjz7NmzDzjggM2bN3OISJ40adLMmTPj0lB6eJGeVaBHFKgHnXrqqb///e+JW9PiWV3j75VXXtlzzz2XLFkCKzKSsjYXcZZbJGu1vQibNjU+U5/C44l0SFBgPYh6Gan4G3joNI0rHjnajzgacmwYWiXWHLqobMAUVeyQWh+xrq2tNV7qyQcmEOsdAETwwSoZKxutdmyg3aYmSGq1TeTIeTOOq5tuuqmwsHDjxo3cLyS/99573bp1++qrr+IS63bt2lHn4uNGXV3dq6++uvfee/PXVuLJ4JUrV/bs2fPhhx+2RyPj9lpGndrlcSLHpI1WccY7KH94uw4eQMTXf8kLNJ0BZz67wU3QIsUQeP81VHJeG636l0Ntg6Sc10WclVhzl0XlrDkgarJRyr5dmshh1xhucGgQa1oAoMojr9EWe62LgW7UTa6z2uVwyVjZaHML5yuuuOLII4/87LPP4lLnc845Z9asWYnQoBXrhoYGPjHTxD9+/Hh6YR9W2vDV0ldffbVv375/+MMflODygEyKRm7FlY6ThnPT8q/xyfH6+npnP6Lyac6iHsrnL249Uf/FObz/IpEEOW8irW4FMWCkQ9dxTsVHLo4bSqzjurVFf6glfo2TvYs6bscm3ixc5ePLyaFQCHfTwLZTCda4dtEEWetioMNiKnVWuxwu2Uc22hzCecKECWPHjsXDSRyfSCTy8ssvDxkyhH9ggi+h1dfXt2vXjrLQBSqy19fXr1u3btCgQd999x1uUtNuKzrn7bff/vGPf3zzzTe3EZyBjLYXUKRFNHkukm2QlPPu9P5LMxHfskgv1KutraW20/xFJ9D8hV7mBGqn4KyfNI/rCCXWTbDkOhCGd1v4gGLUlg7lOju12MuR9CofK23G8kBmdnnlnbXi2p0+cBuV0fY6AZE9KGtzwr+bN28eOXIk3jkdt0UjR4588MEH+cRMszg+Tt61a1eCLhQKGTygvr7+sssuu+qqq8LhcG1trbOLBYPBo48++oILLoi7Up5KTOYEzkZoxcUZ58habS+A4jHJEyHLSMranYsz5i9jywdRZ2oguiHai40iSOFC9turxJrjDznX+aSuWMOVMUL2OxiZz5pdvupMxNq4yjcm+FwP9BjvJlvd37kThlFVHMqxYaPV9gJkg4g899xzAwYMuP3223GCE+d58+bhU4vQ8lm/vr6+T58+VAK2VNEWLPr7xRdf9OjRY/Xq1QJ19vl8o0eP/vTTT1ETLsAuT+Sy9l+gIWNlo9V+BJCNfsTTSc4YZ+oy/M4P7rui5JqaGnRAw3TGdqkc1/uRbgUxHNRMOFOxsvdd7L9KrOO6tXVuBaHHEzGj09BDf+klRCDTnHa3jkA33Jy1DqZ2BbLo4kDWHDjPmTOnV69eTz31FC/ciJzNmzfn5eWtW7cODyDSBSr1ICyY9e7dmzoabanimz2o8N///vfHHnusgFU4HL711lv79+//zDPP8PqQbNTKeYLrhEDtOkFu4fEct8Jy5MjaLLcXvYns8vkLi9b19fXhcJiIda63l9df+y/QkGPSRutiPOsHYsgR5t/svyieatCsdrdv345PTJE5fJKKPk5BN9HolrSBSK6/sN1oTrPijJ24hlHhMwE4U3EGFLKPbLRJP+SxdevW0047bfTo0R9++CHqQ4Jh95RTTrnpppuoy9TU1PCPJdHFKt167ty5M3Wu8vJy4+tLKP/YY4/97W9/i0NDILslJSX9+vW74YYb4mqNRH6ocQU0DA8inQQbbdK4ynhkkGvVRuzyDkXxjPmLyDR1MZrLDLfiUEZS1rYRnIGVtpdDIceGoVVizaGLygZMUcUOKYcmKhqPqEV8JOLjVHV1NdFu/sGqHW393/8cai9VW/agrNX2ctfLWNloWybOjz766MCBA6dPn85BgMzb+7vf/c7r9VI/Im7NPzyO9HA4zIk1ijKEtWvXtmvX7o033jDS6RB2N2/ePHbs2DFjxrz//vs4E1qkGIL2XwAiY2WjbZnxbNMiOW922svnKSwM0QUqDkGs6QumOXQBs3HjRl1wQd+EkOvjlW4FwR2GGIEcHJMUe5Art2aw/4xaRLfPqCl444exxzq2oU1HudJeVF72oKx18ZYQ6kOC2jUAaVFxVVVVNWXKlKFDhz799NNGPXEID65du3bXXXd9++23+b4O56u+aHtVr169sDcURRlCOByeO3eu1+s10ukQdulwzpw5nTp1mj9/flyts4QWhXMqdTbaa7RI1mr/5XDJWNlos4Azbf/A877Yo0jxjNmNz2s2LZLzNkd79eFFHquQc328UmINV8YI2e9gZL6Z7OIlRDROoal0SPvShP2dzTGgNGt7LR+d0fYiQiyRbKZ4tqxVXP8+8cQTQ4YMueSSS77//nuhL1CLamtrDznkkD//+c+0tRrcmu4IAT1M/LvssgslJp0wxo8ff80116AECE4k165dO2rUqHHjxmG/Ck52CkntOrNQitMuP1PWxsUZ2eW8Nlq1C5Ate4rshazhjN3VmL8onjF/0VWrfcRmv71KrHmsQs718UqJNVwZI2S/g5H55rNLN9RwxR/TWn1LhgFHJJLrHdtoUPPFlVyyrM3axGygYdjduHHjmWeeOXz48OXLl6dIRCZMmDBt2jReLPUsg1jjBPpAjGEXWhIIq2+//XbfffddtGhRXK2RGIlE/H6/x+O57bbbhIuBVOw6S+a1ykyrdjlucl+w0bYFnMGh6+rqWlN79a0gvI9AzvX5V4k1XBkjyMNcjnZseitIfX19TFMbD1plewWqoe01YiDXBzKjOan799Zbb23Xrt0tt9yCEuS84XD4+uuvHzNmDM6HIGypSp1YRyKRV199tUOHDqtXr0bJMt3/4IMPTjnllEMOOUTYwdJm/csxJDmpf3XcAGgyVtmfB+vr62lbiMZzij6SPShrs+9fNCrX/avEGq6MEVpxwPHtaGhzK24v2sgFbS9Ho20OoAsXLvzRj3509tlnf/TRRxwNOTbuu+++YcOGffHFFzwLZLovhEMIaRHrSCTy17/+dZ999vnss89QglyrcDj86KOP7rfffqeffvo777yDXBByfaJCQ0iQ0Wib8WxAhEMZKxvtTsGZ5i+N59bqX2pXrvtXiTXiM0aQh5udMqC4FXBKrOX1P7dwjomnHQetOK52NDHmf8ts79NPP33YYYd5vd4XXnghprqNB0KdH3vssd69e9Nbq50ZI5GIW8Q6EoncdtttRxxxRHV1NRkSasXj+Y477ujWrdv/+3//LxgM8hrm+kTF28Lba6TjUNsLKFKMHJzPBTnvTpkHWxmx1q0gPN4g53r/VWINV8YILXBAofpZBhyeAolpre6xNuDQPdYMELkv2GizPzG/8MILY8aMKSws/MMf/sCaGCMmatHSpUs7der00ksvCVsFXCTWkUjkyiuvPOGEE6hyiWrl1H711VdXX311hw4drrvuuq+//ppOsBw3YgBiB3Ktsu9fVE3bCyhkH9los+9fzF+txr/68CIClQu57l8l1tybUVkebrI/oKBmlgGH1xegQBJaa3uNZuJQ2wsoSLCMK6M0HLYcnJcvXz5mzJj9999/wYIFGfTfpUuXdujQ4bnnnhNahHfvoPkQ0t0KgoyTJk0qKipKukbrrNUnn3wyderULl26zJgx4/PPP2/1/gViJGh7AYgzNqDKIK543gz6EbJnVis8fN9q/KvEGiHBhVz3r34ghjq4+bclvBjfrFPjca6/ON1olOJsAKL+BSBybKSuffjhh4888siDDz74/vvvR+Fp4fzwww937tx5+fLlST/lwD8QA1vhcNjjaRpp07JLJVx44YUnnnji999/n8FnLz788MOpU6d26NDhwgsvxFv5eMWStih1nI1i6TCD9lJGtcvxlNHIzodaeH0gq38BheyjRNpPPvkkaR9U/wLkpFglwplKkLUu4qzEmrssKmfNAVGTjZLaNQDRgRuAyLFho3VxQEFtSZBr1ax2v/rqqzvvvHPfffc9+uijH3/8caNiqcfVvffe26dPnxUrVqTSokTttSHW4XD4kksu8Xq9qdfZaOymTZsuueSSbt26nX322aWlpYY2UZ1t2gsTGdfZplbNGlfC5Y3ahd9zhQDxCiets/qXw2XTQ+W8rQBn3QrC7z9EZQqg6LFDyvVbFUaDtL0GIOpfACLHho22mW4lr1+/nnZBnHPOOa+88goawoUU/Ttz5swDDjiAv2cjs/ZmvBUEdZ4xY8aBBx747rvvIoULcq0I5+3bt8+dO/fHP/7xyJEjFy5ciOxyXhttM/k36QYGtQvnJsVK/Zs6VhpXqWPVxuNKiTUPlagsh4V2sChSyR58lJGUtYqz4swR4LIzcsLh8IMPPjh69OjBgwf/5je/+eSTT/j5hpyUWFdVVZ155pknnHACnv+jEpx2ecmJtPbEOhwOz5s3r2fPnoFAgFtMpVZGP3ryySdPPPHEvn37Xnvtte+++26iOqdSspzXsGtUW85ro1W7HGobJOW8irM9zvpWEI4h5KTjM840BDliZa2L8azE2vBL02HWHGCYV7sGILnewYzmqH8NQFzxb2lp6aRJk7p161ZUVLRkyZKkq3RJB9BXX331oIMOuvzyy43aJi05kX9dIdbhcPiZZ57p06fPHXfcYVQskV2c5sT5/fffnz59+sCBA0ePHv3nP/+5qqoKJ3NBLlnWJsVZeL+KXLKsVbtueVBx5kg2R1zpw4sGwnToHK9wmhyTNloX/avEGv6KEWT3uOiAGKvJVn/VLodL9pGNVnHOCZzfeOON3/zmN8OGDSssLPT7/Z9++imqLXtf9u9dd9216667PvDAAyiNC3LJibRuEetIJLJx48Zjjjlm/PjxfCk9kV3UXJionnjiiVNOOWXXXXctLi52frtRLlnWyjjLeW20ahd+z/hSkEqQvaA42+OsxJpjCFkYr+SYtNG6GM9KrOHKGEF2j4sOiLGqxNqAQ98nzQCRY9JGm1vx/O67786aNesnP/nJ4MGDr7rqKuPT3wSYjEai9m7cuLGoqOjoo49+6623GPAxolxyIq2LxJpqM3369Pz8/KeeesqmvTzv559/fu+9944aNapPnz6TJ09+/vnnuZZk599E7cWZuT5BoiEkaHsNQNS/AESOjURa3QoCALmQ63GlxJp7Myon6gY4I9cdj4aQoO01AFH/AhA5Nmy0iQhu3JhcvXr19ddfX1hYOHjw4EsvvfTFF1/MeCNBXLvz5s3r3LnzrFmzbFqUKK/rxDoSiSxbtmzo0KGTJk36z3/+k8gunJh6PH/88cdz5sz5+c9/3rdv3wsvvLCkpKSmpgblGIKLdtMqWe0acKXuXyOjjKSsjduPUL6c10ardgGy3pHgUFii4WJcKbE2/NJ0KHd7Fx1gmFe7BiA6YQAQOTZstC02nr/77ruSkpJJkyYVFBQceOCB06dPX7VqFQHiYntXrlw5atSo448/fv369ZZDc6JaNQexpi+oX3bZZQMGDKBXdCNUnEIG/WjDhg1333336NGju3Tpcuqpp95///1bt241Sk7UXpyWgV3KK5csa1tsPGd8KajtRUSRoHEFQOTYsNFqPwLI6c4LSqw5dFFZDkcNuChSybavyEjKWsW5beK8du1av99/7LHHtmvX7vjjj587d+7777/PoUh3mDPyIq42btx4/vnnDxo0iD7HSKfJMZmZtpmINVW4tLT0qKOOOvbYYxO9WxDtdeKQCpKhUGjhwoVnnXVWr169Dj300Ouuu+6ll15KBStLuxnTULXLHZ1ZxKp/OYaQXSf0uhUE2HLBdZypcLkvuDhuKLHm3ozKWXNA1GSjpHYNQHK9gxnNUf8agMC/77777n333XfGGWf07dv3gAMOuPTSS5966qn//Oc/xvk4lJGUtZFI5K233rrqqqs6duz4m9/8xtjqIOfNTNusxJrI8fz58wsKCs4555y3334bKEEAzkiBkFaLVq5c+Zvf/OaII47o3LnzCSec4Pf7//Wvf6Eop+CWXaNkuc4uTpBqV7i8UZx5eMgxmUirDy9yDCHn+rjhCe34lTf+dhyFKioquMy1XIVzNmzYANkQeF5DFQqFDC0vvKKigmu5CuWoXUDBsUIiBEPLwVScgRIEjStAYUQO0kkwtGnF1bPPPnv99dePHTu2b9++e+2111lnnXXPPfesXbs2bslu2X399dcnTZrUvn37iy+++M033zSKdY5IxgmZtdfjaRppmzWugsHgdddd16NHjzPPPPOll17iNXfd7gcffLBgwYLzzz9///3379at2y9+8YuZM2cuXbr0s88+a1a7odD/5ibuBR5yMO16e9Wu4hwKhVyPq9LSUo1ndFsIruOc5f6rK9a4RooREl1f4qRcv6JCQ0jQ9hqAqH8BiBwbaWm3bt365JNP/t///R/t3D344IPPPffcRYsW0f1QWEwlJtOySwX+61//Ovfcc7t06XLNNdesW7fOMIfDDEpOmjcLK9ZYWfz+++9nzZrVt2/f008/HXs2mjWeKyoqlixZcsUVV4wYMaJ9+/ZHHnnklVde+fjjj2/atKlZ7QJ2p6B2gUlzxDMKV5wBRWY461YQAMiFXI8rJdbcm1FZ7iR6CyyKVDPvseaG2rgsx6SNtvniedOmTSUlJTfffHNRUdGgQYP69+9/0kkn3XLLLc8999y2bduazy5Ho6am5v777x85cuTQoUPnzJlD20uyPHBnk1hTN6mvr7/33nsPOuigww8//E9/+tPmzZsTdR+OlfOcdLXbt29/+eWXb7/99lNOOWXPPffs16/fSSeddOONN/7973/fsmULLz/dklPPm5244vWBnOVlF54XAAAgAElEQVS4UrtAAILGFaBI5QkKXJDzXJA1ngFFWnGlxBq4xQgyiDpwc7BkrGy03IrKNkjKed2K5+rq6rKysr/+9a9XXXXVcccd169fv/79+x9//PHXXXfd3/72t40bNzqd2KwD9wsvvHDBBRfk5eWdcsopJSUl3Hqz2uWGSM4+sUYdnnnmmdNOO61Lly4XXXQRFrChtZx6k8bV2rVrn3zyyZkzZ/7qV78aMGBAv379jjvuuKuvvnrhwoWvv/769u3beU24LJcsa92KZ14fktWugUmW+xGsq11AIcekjVb7EUBOd5xUYs2hi8pyOGrARZFqnhXrsrKywsLCYDBYWVnp9Xo98X4+n4+q4fP54umjaX6/n84MBALIRSllZWX5+fllZWW8RcFgsKCgIJrfIRUUFASDQWQJBAKUQrU1TOA0p+Dz+QKNv7y8PKMOzpPlmLTRZhbP33zzzWuvvbZgwYJrr722qKho6NChu+yyy8EHH3zOOef4/f5ly5Zt3bpVrlVmdgkZoeQXXnhh6tSpe+6554gRI+68887PPvvMCWaWJ+adSKyp7evXr58zZ86hhx661157XXnllfz9IQKS6U4nSXHeunXrsmXLbr/99rPPPvuggw7q0KHDsGHDfv3rX8+cOXPRokVr16797rvvkvo3aa2aKa7UblL/8hOyGVe5a1e3gnDfQc7y+Oy6XSXWgDRGkAcFHbg5WDJWGWuJ8q5YscLr9QYCAW4xEolwikz0lE4gasvP9/l8ArGORCL8BCokGAwWFhYmYrqg0dyig3tHE7xeb2VlpVF/OoTpYDDo9Xo5WXeenzGS9oQgGAyuXr36kUceufXWW88999wjjzyyb9++PXr0OOywwyZMmHDLLbc8+eSTzjfi2dsVblMaaHz66acLFiw488wze/bsecQRR9x2223vvPOOE0OkZHng3unEGu198803b7rppp/85CcDBw684IILHn/88S+++CJ1nAEgCYYXDG3ScbKmpuadd9554oknbr755rPOOuuQQw7Zbbfd9txzz6OPPvqCCy64/fbblyxZ8sYbbzhfDmNpd2e1V+0iQmQPytqkcZVDOOtbQRASXMB4xRNJlmPDRutiXCmxdjrufymye1x0gGFe7RqAcKLM2aclsfb7/VHmyyRaeE6LWPt8Pk6d/Y0/oxWRSERYeod9ed1ajg0bLcVzfX39p59++uqrrz766KNz5sy55JJLxo4de9BBB3Xr1q13794/+9nPxo8fP2PGjAULFqxcubK8vJzaaG/XiVWKJX/44YeLFi2aNGnS/vvv37dv37POOmvBggW0Pi3XKvv9t+UQa6D90UcfzZs376STTurSpcuIESOuvfbaQCDw1Vdf4YQUvSCQmMxw3rx584svvnjfffddeeWVP+zhKSws7Nat2x577HHooYeedtppV1111T333LNkyZI1a9Z8/vnnRm1xmOsTMxqSihcywzmVkltaPwIsrca/SqzhUy7kun+VWHNvRmUdUKJYNErZDPRAIEBcMxAIEB+ld/SCgHq93sWLF2PHRSpbQYzdHYFAoKysrKioCGvJfr8fBaZOrP1+//Dhw1ExpwCuXFlZWVRUZKyCJ2LhBvh0KMdkKtrvv//+k08+ee2115YuXfrHP/7xpptumjRp0rhx4w499NB+/fq1b98+Pz//5z//+RlnnHH11VfPmzdv6dKlb7zxxpdffimQp1Tsxm0OJaYVVxs2bHjqqaduvPHGsWPH9u/fPz8//4wzzrjnnnucr/iQa5V9ItICiTWcEg6H//GPf9xyyy1jxozp1q3bfvvt5/P5fve735WWln7zzTcykrLWRZwrKipWr179+OOPz5kzZ9q0aWPHjj3kkEP69OnTqVOnvffe+6ijjjrjjDMuv/zyO+64Y+HChc8///w//vGPUChUX1+PZkKQ62yjdbG9qC0Jcq3ULodLxspG2xw461YQ7jvIac0LyJV0SVT2vov+VWLNnRKVs+aAqMlGSe0SIFiohhCJRFxcsSYrWPYOBAJ81TlFYl1WVjZt2jQjbyKuLBNr3kwjJHCYKDYqKys/++yzt95665VXXnnmmWcWLVo0b968m2666dJLL50wYcLxxx9/6KGHDh48OC8vb7fddttrr71GjBgxbty4iy+++IYbbpg/f/7SpUvXrFmzfv36hoYG2OJCIrt0jo1WGMiCweCqVaseeuihm2+++ZxzzvnZz37WtWvXIUOGjB079vrrr3/yySc3btyYMd0X7FoOzYnQaOHEmiP55ptv3n///VOnTj3yyCO7d++en58/ZsyYSy+99N57712+fPkHH3xQXV2N8EjUXpzQ3BNkVVXVxx9/vHLlykcffXTu3LnXXHNNcXHxmDFj9t9///79+7dv3753797Dhg0bOXLkySeffOGFF06fPv3222//4x//uGTJkpdeemn9+vUbN278+uuv6+rqmjWemymusoYzDBlCc/vXMIdDtQso5D5oo83+OIlG5bp/PYR7OByubvzh0BBkbTgcLi8vN7LgUM5ro1W7ANnSg7IXso8ziCYJzjVpX+OP+mG6e6yN1WtjmTkQCKRIrMk61teNcuiQr1gbT2EGAgEsk/N924888sgDDzzwhz/84a677rr11ltnzJhx+eWXX3TRRWeddda4ceOOPfbYESNGHHDAAQUFBT179uzQoUPXrl0HDhy43377HX744SeccMLZZ599ySWXXH/99XPnzl24cOEzzzzz2muvffDBB7TwzAOGy83Rf2tra6urq6uqqv773/9+//3333zzTUVFxaZNm95///21a9e+/PLLS5cunTdv3t1333399ddPnjz517/+9RFHHDFkyJBddtmlf//+hx122BlnnHHdddc98MADr7766ldffcUrLEesrM1+PHs8TSNtc+CctO/btPf9998vKSm58847J0+ePGbMmKFDh3bq1Klv374HH3zwCSeccO6551599dVz5sy5//77lyxZ8uKLL65evfrdd9/95JNPQqHQN99888knn1RXV9fW1obDYfoLJ8o+stHy9gaDwbfffvvll1/+29/+9sc//nH27NlXXnnleeedd8opp4wePfqQQw7Za6+9evXq1aFDh912261///5Dhw79yU9+4vV6TzzxxPHjx59//vnTpk2bPn36zTffPGfOnHvuuedPf/rTww8/vGTJkqeffvqFF15YuXLla6+9tm7dunfeeefDDz98/fXXP/3002Aw+Pnnn3/99dfffvvtd999t3379urq6u3bt1dVVaH5tY0/HLrVXhQIwaZkOS/HGeYgyHlttGoXICft+4pz6li5GFdKrDnsUVkORxcdEDXZKKldAoQTa+cOCufDi3FJLRL5w4sejweL02QFWlwup0usUWAkEkllxZqYPb0PhJ5Z5A9onn766cXFxRdddNGll15KM/pvf/vb++6774EHHnj88cefffbZVatWvfHGGxs2bPjiiy+qq6sJMTlyZG3SeN64cePq1auXLl36l7/85fbbb7/66qsvuOCCU0899bjjjhsxYsSBBx64zz77DBw4sFevXl27du3UqVPHjh3btWtH+Ldr165jx46dO3emnbKDBg3ad999DznkkJEjR5544omnnnrqtGnTbrjhhnnz5j322GOlpaX//ve/v//++1Y2YeQusY4bOVu3bl2zZs3SpUvnz59/yy23XHHFFeeee25RUdHRRx/905/+9Mc//nF+fn6fPn26d+/euXPnjh07tm/f3hkMvXv33nPPPX/0ox8VFhYeeeSRv/zlL8ePHz958uQZM2bcddddf/3rX5cvX/7WW2/FvSCMWys+lmZwAbNt27ZPP/30rbfeevXVV1988cWSkpKHH374T3/609y5c2fNmjVjxowrrrji4osv9vl848ePLyoq+uUvfzl69Ogjjjji0EMPHT58+LBhw/bZZ59BgwYNHDiwb9++vXr16tGjR9euXbt06dKpU6dddtmlQ4cO7du3R78AIO3bt+/QoUPHjh133XXXLl267Lbbbt27d99999332GOP/v37Dxo0aK+99ho6dOj+++9/8MEHH3bYYUcdddQxxxxzwgknnHzyyWeeeebEiRMnT548adKkGTNm3HrrrXfdddf8+fMXLly4ZMmS5557btWqVWVlZf/+978///xzTuuBlYykrE06bmB0gjkIcsmytjXZpTtvbae9FACtvr26FQRsKkYg98ckxR7k+q2K2Na0uIc1ifIuXrx42rRpXq93ReO7QThRxi4OY4sFGDkaSG/eKCsry8vL83g8Pp8PMgqEQAvM6RJrZI8rEO3m+1hArOmtgtRG7PZGzQ1BjkkbLW75ffvtt2vWrFm0aNGNN97o8/lGjhw5ePDg9u3bDxgw4Kc//emvfvWr884775prrvH7/X/+85+feOKJ559/Hiy/vLz866+/rqys/O9//1tXV0cbS+Rawa7RUjqU89pos283h7aCGL5wF+eGhoa6urr//ve/lZWVFRUVmzdv/vjjj998881Vq1YtW7bskUceue+++2699dbLLrts/PjxRx999LBhw7p3796jR4+DDjpo7Nixl1122b333vvcc89t2LCBb18x6px9/6ICGcwLDQ0N9fX1tKRNf7/77rtt27Z9+eWXoVBo69atdJPnrbfeeuONN9b8f/a+Pc6Oqsj/BhIShpchPBRIjDwERQi7gCCv0QU0PCSwiDyUUZTXYsAfEDFsgEX5gCNEiCIveSwgLKJ8gB1B3iYERNThrWbJg8jCzB1FUBMyYebOzP1tpjLfqVt9b3XfPt19u/vW/JFUd/U5VfWtqnOqT5/b/ZvfPPXUU48//viDDz5477330tOta6655j/+4z/4060TTjhhxowZBx100N57701PtyZOnEir8h/4wAd22mmnvffee/r06ccdd9xpp502e/bsuXPn3nLLLffff/9TTz1FT7eC5GC2cA5ikR7tcdhrP15E7nAiRB6lyr9WWHNvjtLJJ1iQsIgjsVMld9WqVUuWLFm4cCHVxy0tLbSDefHixVjTpSVhFNa8YMXLN4K8bg89eFvVVViPBk3lLnB+vlwu483ctFmcXudHZuKt2Hj7nmgbxEd6xNbivvrqqz/5yU9mz5594IEHfvCDH9xggw123333448//sILL7z11lsXLFiwfPny9957TyliavUcROfcxzP8aIU1oAARPHL+9re/vfjii/fff/+VV155xhlnHHTQQVtvvfXGG2+8zz77nH766ddff/1vf/tb8QuBrE/MQIkIHavgebRq1aru7u5Fixb9+te/fuihh+66664f/vCH3/72t88999wvf/nLRxxxxD777LPjjjtuuumm66yzzvvf//5ddtnlwAMPPOGEE84555zvfve7t99++2OPPfb73//+nXfeIcUMZ3hK91EtrhXWAJATWY8rK6y5N0fpWmmAK7LueBhCRJL2DgwMLFu27Je//OWtt976rW996+STTz700EN33XXXSZMmTZgwYdttt913331RLtMuZCpAsR7c3t6Osli83KPWijWZiVbYZt3S0jJ/eDmcbwgJWFgLraCeIKhuxnZqKrLpqzS0dk5L2l7N6/KR7kFw+/v7n3jiiUsuueTQQw/dbLPNpk6devTRR19yySW33npr1S8j2o+uIvGCFdYCRve4+stf/vLkk09effXVX/nKV6ZNm7beeuvtv//+55133n//93//7W9/s/EZgCP3cYYTtbiDg4PFYvH5559/+OGH77jjjrlz586aNeuLX/zigQce+JGPfIR2uey4447777//l770pQsuuOBHP/rRww8/vGjRot7eXuq/Vs/u3OA3EtzSdMq1t4J4fZQD/1phXdWtqdsaAS2zNWG8/fbbzzzzzI9//ONLLrnkpJNO+uQnPzl16tRCoTB16tTW1tYTTzzx/PPPv+aaax544IEXX3zxrbfegplEYMuEt+hEiSxWeb1X8gvQCoLws0gsG9OKcl1fXqSt1YVCgTZ1XHfddYVCQVTqU6ZMoV8rUtlNP7gsFAp33nlna2tre3s77iWgmyBcJqpnnnnmkksuOfDAA9ddd9199tnnvPPOu++++/j3aLIVV45lWfIDtxXWIpgdPejNhXfffRcvDZwwYcIee+xxwQUXPPnkk3HLFf03Tx6tXLly0aJFd9999y233PKtb33rq1/96sEHH/zhD394vfXW22qrrfbdd98vfOELF1544W233farX/3K+8Zxrwc5kjo3+fyFbs3jXzLZ7IXr9ZgUXCusgVsFIWCq4A0fWMABE2C1aNGi++67r729/aSTTsLH+f75n//5mGOOOf/882+66aYnnnjitdde4w9t0Ra9ccL7Q0CsNFPl6i1GUVjjZR3YNk21Mq12Y1EZm0ao57o+EMP3alMZzfXh36C54IIL8JJsMrCjo8P7whBxDYciXCHyf284OfXUU7fZZpudd97561//+gMPPPDuu++KbunQ4hmw6DEZjmuFNeAFEQ5Jaq63LZfL99xzz7//+7/vvvvuW2yxxUknnXTvvfdi2NHbunCt4CPvvPHGGwsXLrzlllsuuOCCL3zhC3vttdek4b+99977S1/60mWXXXbvvfe+8soroTeYGc5IonDzAprr0W44A6h6cbbCmkM3SlvAjWIxTHkLr9dee62jo+Oyyy47/vjj6VHs9ttvf/jhh8+aNevGG2988sknqYmOpM4VOjT5oY4V5z744IMnnXTSJpts8qlPferKK6989dVXObcqjF7/4jK9rQu3eQZuK6wRTiBcIkdvy+Nq+fLlV1999UEHHbTxxhufdNJJDz/8sN7WhcvlwkwQLj3rbTMh96233nr66advueWW884774gjjth+++3HjRs3bdq0E0444bLLLvv5z3/+pz/9KSBWmbAXthBRy4O2FUQARYdZn4+ssK7qVtsKImEpFosvv/zybbfddvbZZ3/qU5/adNNNt9lmm0MOOeS88877z//8z9/85jf8sxG8ca0Bha7Rubwfo3WsSqXSK6+88n9vfZ4yZco+++wzb968N954A6DpbfM0UQWMq4QHbiusEYog9Jh04VaN5zfffPOqq67aa6+9tt1224suuogKGigDInK5kfSsa1XV3vTLfffdd5977rnbbrvtG9/4xvTp07faaqvNNtvsoIMOmjVr1u233/7KK6/ABC+RcP5Cgcjl2o8XgS0nIseZOk8sj6yw5t4cpRNzwKjIYSpVcpctW3bXXXedc845BxxwQEtLy4477nj88cdffvnljz76KN8zp+vswhXgNPmhguR999136KGHbrHFFt/4xjdeeuklL1BKW7o46wOZMDlt9lphLRxU76NV0dzFv88+++zXvva1DTfc8Nhjj33iiSfq6tlFrt7WhZvRwtq7FaRYLD700EOXXXbZ5z73uW233fZ973vfQQcddP755993331dXV3cU7kZr6yw5m4FnXX/2gdiaECT/+b+BebCYNj79NNPX3HFFUcfffQ222yz9dZbH3nkkZdeeukjjzyyaNEi0QSHaIsznHDh5ulDAISJjkYIe6+99tpddtlln332ufHGG0N/jiGEXLhYt0jnNo/cnH0gJqD30+zfd9999/vf//7OO+98wAEH3H333QEtsngGUESE+BAPNdSRJG53d/fPf/7ziy666JBDDpk0adL222//xS9+8ZprrnnhhRdilSts5IeRy7UPxHB4QUeOM/WsR12E45UV1nBlBZGYAyqk+n1YPkLHc7nz58+/+OKLDz744JaWlt122+2MM864/fbbFy9ezK/JeqBzW3y/6hcTztHKveqqq6ZOnfrZz36Wto3qEatzM2FvXR5Mm71WWAv3+eaC7kGdW1c833nnnXvvvfdee+3105/+1FGruuQKQHSLdG6TyH3ppZeuv/76L33pSzvssMPmm29+9NFHz5s37/nnn48QScNZgGnzPgDRY0NwbSsIHj5UEIRmxanKg6w/qnjppZeuvPLKww8/fMMNN9xjjz3OPvvse++9F6/9r7R1zVHW7RUWZdq/N9988/bbb3/UUUf96le/gl26RTrX/AsYY9qiYFtBOMJE6zHpwg0Rzz/72c/23HPPAw888PHHH/duUYDyulYh5Abs2eQCKCI6OzvvuOOOU045ZYcddthmm23a2tpuvfXWN998M6b8hXSbBwGFHpMu3BzkkRXWiJMKQg+LjDr+73//+z333HPqqadOnTp1++23P/3003/605/+9a9/9R2MMmpv/ibIhx9+eN999/2Xf/kX2xuqZ6jOTT6erbCuGF6HD3QfuXBD+/emm26aMmXKl7/8ZSrR6tU5tFzfEVhHo8nlLlmy5IYbbjjmmGMmTpy45557nn/++bRx2eu+FOJsbwWp6qas38BYYV3Vrbl6K8jrr79+zTXXHHLIIWPGjJk+ffpVV131xz/+UZhtA7cAJG2J/dZbb33lK1+ZOnXq7bffLlSlQ92DOrfJJ2aBp45VOK4V1gJkxxJH94JLPL/33nuzZ8/eYIMNfvCDH9Srs4tc3SKda3LhqSeffPKb3/zmbrvt9oEPfODkk0++7777BgYGwHWMujhwth8vcu+ATtv8W2/kWGENV1YQORjIlixZcsUVV+y3336bbrppW1vbXXfd9Y9//KPCSHaQA3uZNWtI3SKdG8cASuqFk3vrrbduttlm5557bq13GubM3iBY6Ujq3OT9a4W1SE/HiI3bv88///xBBx00ffr0RYsWcc3jlstlcdrkcjSC5O/SpUvnzZt34IEHtrS0HH/88bSB3jHqgsgVeuKwlgetsAZEnLDCei0aWQeCO9U3/eJIMFKgVvpBPV+c33zzzXnz5u23335bbLHFaaed9tBDDwXp2V0uNBSE3rPOTTPOwkwc6hbpXK+9f//730888cQ99thj4cKFelsXrlcuzPHNBZMbBCsrrDlKRLtEjt42qni+4oor1ltvvRtuuAHKJyMX4kCYXEBBhO88iOv//Oc/33DDDdOnT99ggw3a2truv//+VG0RtK0g8BQngvuXt3KcraIaN8rlsq1YC7+sPczcQDY4OHjbbbcddthhG2ywwUknnfTggw8Kw3SLdG6EAVeXVk0u95FHHvnQhz40a9YsAk33kQu3yXGuKybD4WyFtQDZcQrUvRBhPP/ud7/bc889Tz755CA5GKFcAVdi9uZYbrFYvPrqq/fbb7+tttrq3HPP7ezsFMb6xqT5lyOmx6QLNwc4W2HNQ2WU1sMiVY7/zW9+M3PmzPe9732HHnrobbfdJraUwSTdIp2bKnsjsSj99l5++eWbbrrpPffc0yT2wkwQuo9cuMnHsxXWcCsIFw/qbSP37/89+ttrr73wLn+Y4CWyvtImLEoYZ0iPVe7LL798wQUXbLvttvvss8/111/f29ubjNxUrZSTybHi3Mz2WmGNnKogMhFwN99883777bf99tt/+9vfXr58ua6zCzfyiQpY61o1rdyTTz55//33X7p0KYDyXU3RkdS5TYszhxe0jlU4rhXWgBdEOCSpud42jnieN2/epptu+sADDyjlQhxyG2VvM8j9+c9/fswxx2ywwQYzZ858/vnnfcfYOPxrW0EwIHAi6zeo9oEYGqLlv+J135JdKjXwxenLli2bPXv25ptv/tnPfvbee++FbrrOLtwm+QABkGygvYsWLfr0pz/d1tbGlSHaxYN62wba28A88iIcH872gRgv2npMunBjiud77723paXlxhtv9NqCM00Sz3my97XXXrvwwgu33nrrQw455Gc/+5ny/do44mrBggW+nyWKQy55UM8yk4s49/WRQNIKaw7dKC1gGmWMUA0ZQJ999tljjz12woQJZ5111ssvvzyiy9r/dZ1duJZgHGoXJPW2S5Ys2WWXXb75zW9ycaD1ti5c8y9ArncA5Q2VtlZYC6AUrOjKdMbzwoULt9lmm6uuusprDp1pyLxg+cvdETpybrnllo9//OO77bbbj370I94hpyP3rxXWHF7QkeNMPeuxEWEe2VYQ/vxhlCY3jB57qIQfVTz55JNHH3301ltv/e///u+13pqn6+zCjeMRGCGqa9VUchctWvThD3/4wgsv9MTa2hM6Vi7cpsKZ0Ew4f20riDeqXSJWbxtrPP/+97/fcccd586d67UoVrm2BYUDHl/+PvDAA4cddth2221X9UXmkcu1rSDcraAjx5l6TmzcsMIarqwgEnNAhdRqb19euHDhjBkztttuu6uvvtoGbg6X7iMXbvI4v/rqq9ttt933v//9rA8o3EEN2bNICujeT96/VliLwPCNDd2DOjdu/y5btmynnXa66qqrvEZZ/gIT3Ucu3Lj9Wy6Xn3rqqX/913+dOnXqD3/4Q1iUgFwui9MWV0DDJXL0thH61wpr+KuCSMwBFVIrC+sXXnjh2GOPnTp16jXXXIPLLMEAhe4jF26ECQZtiaiq1RtvvPGRj3xk3rx5CcvlullcAY2qPnLkWmENAEHEgTM6jzueX3311alTp950002QSETccoU4HJpcQBFhXD399NNHHHHERz7ykdtuu838C4SJiBBn0XMO5kErrL0+XXNGD5q4HV8sFr/2ta9NnDjx8ssvF/rZAApAdB+5cOP2L0wol8u9vb177733pZdeSifNvwDHxYN62yT9S+ZYYQ23gtB95MJNxr+dnZ0bb7xxR0cHLEpGLhcH2sYNQOESOVXbPvLIIwcccMD+++//2GOPRY6zbQWB4zgROc7UeVX/xiHXCmuO6iidmANGRQ5TpVLpu9/97gYbbDBr1qyqe6mzHnBee5t87+CRRx559tlnAxbzL6DQc9CFm3wBZIU13ArCxYN628T8+4tf/GKjjTZ66aWXYJTlL6DQfeTCTcy/sKVcLt92223bbrvt5z//+ddff52fBx3OIvukOQDkRNbzyApr7s1RWk+SmBL7kUce2X333WfMmPHyyy+PqlJJZT3gKq1p8JMBofIHaUEAACAASURBVAw/TAbns88++3Of+1zycrlEopOxt2nlWmHtdb0+xrpwYxqfqz7JvPbaa3fbbbe+vj7LI+FiFw/qbZP0rzDq7LPPnjBhwpVXXinOV40Nfk0ti6yw5iiBzvp8ZIU1XFlB1EoDXBSt4999990zzjjjgx/84B133NHkK7hAmIhocUbnCfu3qtwbb7xx11135d/9auCEkWOcAT4nErbXCmsOPtF6DrpwE86jM88888QTTySjEo4roGpyAYVL5OhtKa5efvnlQw899JOf/OTvfvc7CA1dWNtWEI4h6KzHsxXWcGUFESTBKhqwA72tl3vfffdNnTp15syZeDU960ySWQ84YY8XDXFBXu19/vnnx4wZ89vf/rZJ7BVm4jCv/oWBRFhhLQAJXYhQP2kbN/bdd197a5Nwse4jF27CN07cLoxX11577frrr3/ZZZeB62KR3jYN9sJMELrOLtwc2GuFNeKkgtDDIkLHf/3rX99uu+0eeOABEp+Y3AprG/1jTaEMP8RAxk8SrWPlwo3Qv0JtaPWJT3zi2muvFdwE5Hol0pm84pwSe62w9joCueBlOZbdyefRSy+9VCgUXn75ZcsjeDNP/oVR3L/Lli07/PDDP/OZzyxZssQxYnWsko/nqvbiJBG6zi7cHNhbKI78dQ3/jRwVe3p6OM25nIVrli5dCloQvK1gFYtFweWd9/T0cC5noZ/syn3kkUd2222344477rXXXiNz8m0vbITvmtbes84666ijjspZPJt/lXguFNaOtNkdr8y/in+LxeIll1yy//77m38xvPO5GydBCC4fDHWcqYf04HzBBRdsuOGG1157rbAIlhIhuLD3lVdeyZa9sEtYhPO6vcXimtqStwUUvIf0+BdacZ1xEoTg2oq1uA1be6jfb7nfUd18881jxoy5/vrrhfi45QpxODS5gIIIvjIhWDpWvtwFCxZMmjSpp6dHdBu3XNu7zwGPz79VcbYVaw4+0b6ZUhXJIG3dx2evtkHkTp8+/dvf/na4ti5oNMpek0u+nj9//g477PCNb3wjRMTajxer5kvC4zN0iEquFdaAtILQhznHAeWcc87Zeeedf/Ob31SIHD6IVW6ItIeGUQUcOiSiCe3dd999vd+VACyGM6DQY8OF65i/IfLICmu4FYSLB/W2yfuXjHrxxRfXX3/9N998EzZyQtfZhdsoe00u/Pu3v/3tyCOPPOKII6q+JFfZKGKFNTDkRNbnQSusuTdHaX2YCz2gvPfee0cdddSRRx65cuXKUWGMikmuktgk3OQyJ6whY0rs73//+5/5zGeELH4Yk1zzLwc5Pv/WwtkKa4G/44hUC2dIaVQenXnmmSeffDLU4ISusws3+XiGXY3COZ1yZ82aNW3atD/84Q/AB0Qt/9pbQQARJ9Lp3+BLKlZYc2+O0rXSAFeEcPzrr7++9957n3XWWcHdA3EgQsiltrpFOtcGbuDvUhCsWLFi0qRJv/71r3lvgjb/AhA9Jl24ycezFdZwKwgXD+ptk/cvjHr99de32mqrZ555BmdA6Dq7cBtor41Xwr9XX3315ptvPn/+fJwnwvzLAdHRyEE8W2HN3T1KR+74V155ZYcddvjOd76j96xzcxBwoxAPU01l7+zZs0877TTltsr8y8NDjw0XbvI4W2HNPUu0iwf1tsn7F9YVi8Uf/vCHn/3sZ3EGhK6zC7ex9sJAQbhYpLdNub1333332LFjxbfudYt0bsrtFX6nQ90inZsDe62wrhoVEX8RsLOzc6uttqLXq+khpXNzEHAC7uax98033xwzZsyyZcussOYx0CQrXlZYc6cTree+C7fh4+ROO+30+OOPC5NdLNLbNtxeYWnu/etr70MPPbTeeuvdc889uLKWB20rCCDiRNbnBSusuTdH6VppgCuCO/65557bcsstb775Zmqr96xzbQAF/i5bMnzbxoHzueeee84555h/uQfjwDlIliUv1wpr4XffHNQzRecm719YR/PCDTfccPjhh+NkkJjULdK5DbdXWGr2lsvlxx9/fMKECffdd5+Ohv14sWrwBK+vRHM9U3RuhHlkhbXwy9rDqBywaNGiyZMn33jjjRCj96xzI3Q89CHC5ApAok3st956a+zYsf/7v/9rOMeKMzpPG85WWMM1IHQfuXDTME5OnTpV/JrCxSK9bRrshVtB6Dq7cLNi76OPPjpmzJhHH31UuY20whoBw4lo51/0rEddhHFVIEmlUmn18B8OBaFzS6VSV1eXaIJDva0LN+Vyu7u7P/rRj1511VWAwnDmUPiikXL/ClvosGo8X3zxxaecckrz2AtkqqIBbm78C4tq2VsorB1pbZz0xYouqIVkEG4a4uo73/lOW1sbjPXN/azbyy0N4qMmsfeee+7ZZJNNfvvb39aylzYH1uICVRs3AIWOlQs3wnHDCmv4q4LQ3RPQAZ/61KcuvPDCin7tBqYSjkhwruxy7ZHes84N6N/gcrfeeuvf/e53vpNr5HKhYcL2mlwgQIQV1gIQ31zQI1bnpiGP/vrXv44dO/aNN96A4brOLtw02AszQbhYpLfNlr3XX3/9jjvu+MYbb6xevRrgCCJP9pJpukU6N1v+rWqvbQXBU4IKgsCqOFV54Puo4itf+cpXv/rVykZrjvSedW6EjyqEYiZXAOLrX3E9Dr1I3nnnnXh3tZeLhkREKJf3bHI5GsnnkW0FEfg7joSZiOdTTjnlO9/5DgzXdXbhJh/PMMrGK0ChePDCCy+cPn268rN1pS31bzgHwdlxVIkwj6ywhr8qCMdA/+53v3vAAQdU9DhyoPescyN0/Ig6a/83uQKQCAey6dOn/9d//Rf1bzjHhzPvOW04W2HNvRMkF3QP6tyUjJNPPfXUzjvvDMN1nV24KbEXljaJf+uy95hjjjnnnHNEk3K5bG8F8WKSg3i2wrqqW33WlXXHP/bYY5tsssnixYurdm0DKIdFR0PHWW/rwo1Q7tKlSydNmgSTda0ilAuJRJhcAUiEN06851o4W2HNUQoSk7WQDNI2PXm06667Lly4MIjO+bCXe9nFIr1tevwb3N533nnnwx/+8F133cWblMtl+/GiAIQOEx6foUNUcq2wBqQVROjE7uvr22mnne64446K7tiB3rPOzeKAolukc3Ng72WXXXbGGWfA/7m3F5YSYfYSDlZYi8BwfGiblbi65JJLzjrrrCC5oFukc3MwTorwyKW9jz766KRJk958801urBXWHA3QURW46JCIxOLKCmuB/NrD0A4444wz9K/r6T3rXBtAubd0rFy4EeK8xx57/PKXv4TaulYRyoVEIkyuACThgdsKa4F/kxTWf/jDHyZPnhwkB/UM1bk2bvDo0rFy4brjfNFFF33+85/n2tpWEI4G6ITH58jlWmENSCsIPf1qJdiDDz647bbbvvvuu6F/phBOLqmut3Xh1rLX5FYEzfABx/l//ud/tt56a34N5/LzoLM+oMAQIsxewsEKaxEYTVJYl8vlf/qnf3rqqaeax144Ws99F26m56M999zzxz/+MVAiQkcj0/YKS5vEXiusq/o95B7radOm/fSnP9WTxIVrCca95YKk3jYqnL/3ve+ddtppwXWOSi6XSHQy9prcWjhbYV1vbNRCMnPxPGfOnPPPP98KaxEAufEv7Apo0RNPPDF58uT33nsPDX1jw+aF4FgF9ALvkNNRLWxZYc1RHaV191QN9Msvv/zoo4/2TRK9Z51bVS6U1tu6cE0uQK7LvwcffPD9998fvK3hHByrbMWzFdbcs0S7eFBvm6o8Wrhw4e67717XuFEvVqmyF8rrPnLhZt3ek08+me617K0giBZBRFXgim71qIswruwDMQS1/LfeF5j/5S9/2WijjV544YXcf/hAIuX2yZt6cebS9bYu3EheUL9y5coxY8asWLEiuM6RyOXiQOtomFwAFVP+2gdiOMJE6zHpwk1bPL/vfe+j74OE/kSIjkba7G02/9Zr72uvvbbOOussWbKkVCotWLDAd8wx//LRQ88FF26EOFthzV02Suvu8TrgvPPO+7d/+7d6E2xU3ghVr9yRdmv+19u6cL32mlyOAKeB8wMPPNDa2spZvj4ynDlcQJKfBO3CTR5nK6zhOBAuHtTbJu9fGFX109NHHHHEnXfeqevswk2bvYSGi0V62xzYO3v27NNPP90KaySOIKrmUYbiyraCiGcFaw/JhdV5w2f5o4q33nprvfXWo5/32iM/AZqOpM6N8NFMXVpFIvf888+/6KKLkpcrJNJhjnHOhL22FcTrJj0mXbiR5K9XYd+xvZbc733vezNnznSxSG9bS26Q3Nd71rkmlweJjpXgvv322xMmTFg+/Bc6rsy/HH93NCKMZyusva5Zc0akgfciXlhffPHFp59+Oq7R27pwI3Q8tCVC18rkcrh0rMBtbW195JFHeMN646qutpArWtGhzjX/ctB0rMJxrbDmCAeJyXA4Qwofn3GyUXKfeeaZ3Xff3cUiva3lL3exjpULN1qcZw3/BYnJaOUGx8rkBsdKxJUV1hy6UVrANMoYofjA/f73v//ll18e4fgU5XrPOtcCHSD7Fqk6kjo3EpwnTJjwj3/8gyvsq3MkcoVEOkzAXpOr+NcKa2946DHpwk1bHg0ODq677rr0cwsvDkEyVEcjbfa6W9QM9i5btmyjjTai14M0g7088nNvrxXW3N2jdHDH33777YcddthoS7/Vbr1nnWsDaFZwfv755z/2sY9xbYk2/wpM+A2qYOlYuXCTzyMrrIVzlZuQIJmiez95/8K6WvH88Y9//Mknn7TvGwAo3YM6N4X+DRfPxxxzzKWXXurbNjf2BvR+Duy1whq+riCCJ/bBBx98991388Z6WxduDgKOA5XjAeWWW2458cQThbE5ttdrKZ3Ro7154tkKa2+E6LHhwk1hXJ166qk/+MEPrLBGGOTMv75je1V7Ozo6dtllF9+2KYxnX52r2hvQ+zmw1wpr+LqC0MMCjn/ttdcmTZpU0dJWrCvh0JHUucC5ssu1R3pbF6673P/3//7fFVdc4VVb18pdrlcinTG5AplaK4sxTRhWWAv8Y8IZUhL2r6/cq6+++rTTTrPCGkDpI5LOzdM4udlmm/3xj39sHnspAHJvrxXWyPQKIqDj586de+qpp1a0tMK6Eg4dSZ2b3QH005/+9C9+8YtKJNYc5dVer6V0xuwlHKyw9kaIHhsu3BSOG0888cQBBxxghTXCIGf+9R3ba9n75S9/+dJLL63FBVxpu1EMbS9ZlHt7rbBG6FYQAR3f2tr64IMPVrT0K570nnVuCicMS7Cq3p8yZcprr70mWL5YmX85YnouuHCTx9kKa+5Zol08qLdN3r+wrlYB1NXVteWWW1phDaB0D+rcFPrXd2yvZdFjjz32iU98ohYXcNWKq9Byg+RgnnBO2F77QAyFtPw3yAvq//znP6+//vr9/f2isd7WhZuDF+PXhVVG7X377bfHjx8vLKVD3fsZtTf09+Sax177QIw3HfRccOGmM6423HDDnp4eLw5BRgYdjXTaq+vsws2ZvRtvvPGf/vQnZRTNmb3N8KE0K6yrD3R62lOg/+QnPznssMO87fW2LlxLMI62C5J6W0ecn3vuuZ122omrCjpWucrQbHLhAiIS/rKXFdYCf9/JVY9YneuYvzHl0cc+9rFnn33WiwOd0S3Suem0V9fZhZsne5ctW3bkkUfeeuutStTlyd4g0Z4De20rCB62VBDk/opTlQfFYvHMM88M8QM1vWeda49muBN0rFy4jjh3dHQccsghXFXQulaOckM/aDa5cFBMj1ZtKwhHmGg9F1y46Yznww477N577/Xi4I5GOu118aDeNk/2Lliw4KqrrtJ/2Jone4NEew7stcK6+kAXJLH33HPPp59+2tteb+vCzUHACbh0NDJq77XXXnvKKacIS+kwl/ZaQQ9f1/KvFdaACEQtrIJkit42nePGaaed9oMf/ADmC0K3SOem015dZxdunuxdsGDBs88+u9tuuymjaJ7sDZLdObDXCmsxvq091NO+XC6/+eabY8aM6evr87bX27pwcxBwAi4djYzae8EFF1x88cXCUjrMpb3KlGD2kt+tsPamgx4bLtx0jhsXX3zx+eef78UhyMigo5FOe3WdXbh5snf58uUDAwPrrLPOqlWrasVGnuwNEu05sNcK6+rBrKd9uVx+9NFHd91116qN9bYu3BwEnEBMRyOj9p5yyinXXXedsJQOc2mvFdbwdS3/WmENiEDUwipIpuht0zluXHfddV/96ldhviB0i3RuOu3VdXbh5s/eadOmPfvssyIk+KG9FQRouESO3jbCuLLCGv6qIHwdcM011xx33HEVbUYO9LYu3AgdP6Ls2v91rUwuh0vHqlQqHXXUUffccw9vAlpvazgDqJj2OqP/hCcqK6yBPAg9F1y46cyje+65Z8aMGTBfEPmz18UivW06/avrrHOPO+64W2+9VYQEP0x4vIJokwsodA8KrhXWwK2CEDBV8IYPZs2adeGFF3rP56wggIGWYIBCj41SqdTa2jp//nxczwm9bf4mDLOXvG+FNc8CovXYcOGmM4+eeOKJ/fff34uDOxrptNfFg3rbPNm7fPnycrl8wfBfrdjIk71Boj0H9lphXT2YfRP72GOPvfnmm6s21tu6cHMQcAIxHY2M2jtt2rQXXnhBWEqHubTXtoLA17X8a4U1IAJRC6sgmaK3Tee48dxzz9XaPei4HJNOe3UfuXDzZO+CBQvK5fJNN9104oknIjW8hC1sAROXyNHbRhhXVljDXxWErwMOOOCARx55pKLNyIHe1oUboeNHlF37v66VyeVw6ViVSqVtt9122bJlvAlova3hDKAcS4204WyFNfcs0bqPXLjpzKPFixd/6EMf8uLgjkY67XXxoN42T/ZSYf3QQw8deOCBtWIjT/YGifYc2GuFdfVg9k3sj370oy+++GLVxnpbF24OAk4gpqORUXu33HLLnp4eYSkd5tJeW7GGr2v51wprQASiFlZBMkVvm85xo6ura4sttoD5gtAt0rnptFfX2YWbJ3tpK8hzzz23yy67iJDgh7ZiDTRcIkdvG2FcFYojf13DfyNHxZ6eHk5zLmfhmqVLl4IWBG8rWMViUXB55z09PZzLWeinUXLf//73P/fcc1CDE1xnfp5oweVGpdneRuGcRbkbbbTRkiVLyN3m366uLi8UyIss+hcWFYtBx8lCYe1I2yT2Npt/g9j76quvbrjhhrhSEDYvAJAmnAc7Ozs/8IEPEAJ8ygAmNm4ACpEpOE+E4HIwk4wrW7HGjVAF4Xtns9FGG/3973+vaDNyoLd14UZ4RzWi7Nr/da1MLodLx6pUKo0fP/69997jTUDrbQ1nAGVbQTgUjmhYXHEw9Rx04eo4r1q1avz48VwTTscn16Vnva1ur97WhZs/uW+//fbGG2/M40HQtmINQFwiR28bYVxZYQ1/VRBVHTB37tyWlpZ58+aVy+Vx48b19/fPmzdv/fXXnzt3Lm9ctS0ucOFG6HjoQ4SulcnlcFXFCrFRKpXWXXfdwcHBELFhOPvijAuqeiEgNxmcERLlcpm2glQNiYA6p99eGMIJKwgQBn19feuuu265XK4aBuZfHjY6GsnkL9cHdLTxPHfu3AkTJsybN6+3t3fcuHG1YiM39gLG3PvXCmv4uoKo6vgVK1aMGzdu4sSJW2655ZgxY7bccsuJEyeOGzduxYoVvHHVtrjAhWsJBhgd1/B0L4TAmcdGoVAIFxsh5AIQ3SKda3IBY4RxFTAkIFr3kQvX/AuQI/Qv7xO0t/AKGAbmX2Do66PcxPOKFSvGjh3rW1Hkxl64WI/2HNhrhTV8XUHUcvzs2bPHjh1bKBQ23njjQqEwduzY2bNnV7Qsl2u1pctcuDkIuLqwypa9iI1NNtkkXGxky16LZxHM3oIAIbHRRhtRSJx55pneVu5I6qOKxRXHXMfKhVsLZ4RB6JFB16qWXIsr7nd3NOLA+YQTTqCKQomNOOQGQcPk8vjRc1BwrbDm0I3SAiYwVqxYMX78+MLI3/jx48VytXdyRVsiavUchGuBzsF0QVJvGw5n99gIJzdI5MRhr8nl0VgVDW9ILFmyxNuqaltxme5BnWtxxcHUsXLh1sLZGwbRzhq15Fpccb+7oxEHzr///e99K4o45AZBw+Ty+KlrZLDCmkM3Sisgzp49e9y4cYVCYdy4cd7laiusR0EcphQkfbHKXGI7xkbm7PX1oO79ZrBXhIR3qwDyRcfKhdsMOANGItKGswgDoa3lkQBEj/acxbNvbOTMXt9oz4G9VliLjF57qCQ2lh+qLlf7Bo3Ss2/bHAScgFtHI3P2OsZG5uz1jdic+TeEvSIk0lbwhbCIp7D5l6Oh5K8IA9HK0QuKXMeezb/CU3Hkr29smH+5F/SYdOFGiLMV1txlo7TuHtozV3W52gayURCHKR1JnRthoNellYvc8847r+rOe1Igf/bqFulcF5z1nnVuwnL5cBHHxOw75iRsL881sxdouIwMqYpnWGRxxaHQfVSLSx+I0WPDcHbHmXqo5QX0H9V4VSBJpVJp9fAfDgWhc0ulUldXl2iCQ72tC7dRct95551DDz30nXfegY2ccLFIb9soe01ucP/+5S9/OfLII8PFhuEcHGc9U3Ruwji/8847Rx11FIVEU42TCePMgyeFOLuMDKmK55TjrGPlwo0jnhcsWFAqlfTYiEMuOVFHw+TyUNexEtxUFNYjPwW0/2NHgAcKp0VYcBbRjZqoYkfEBIwg4HU6ndFjw4UbbuAe0df+jx2BNC+4xG68CRhBoNbIEC5/3UcVX7kjitv/sSNQKzaSnxcSiKvVq1cHtDcVW0Ho6wlYjTciJgQUnClcFLlRPSIRInzlKjqLruzQBQEFZ91HLtxwjzgVVV0QsLYCAcI5ef+SGr5yLQyEv2I61HFu1Lygy9V1jgmoJuxWwdk3f0ulkoKY7l+lbUrkWmGtODdvrNBpEK4AIvgcA13ROW/uaag9Cs4uHtTbhosrRdWGQpg34YSz7kGdG86/hKPec6lUsjBIJuB0nNNZAOk6J4NbM0hRcPbNX6U4jnXcSEauFdbNEP9rbQydBg0MdEXnJvJc/KYqOLsMkXrbcHGlqBo/Tk0kgXDWPahzw/mXINZ7tsI6sUDU080K68QckUJBSmz45m8yBa4ATdcqwvHKCmuBfJ4PQ6dBhAEn8PUNdEVn0ZUduiCg4Kz7yIUbLq4UVV0QsLYCAcI5ef+SGr5yLQyEv2I61HG2wjom2DPRrRIbvvlrhfUaF+swhZsgKXRs7SGxFAqdBo7+VVLIN64UnRPDrRkEKTjrPnLhhosrRdVm8FRiNhLOyfuXDPSVa2GQTCToOFthnYwX0ilFiQ3f/FWqgnDzQsBxIxm5tmKdzoiNRavQadDAQFd0jgWjZu1UwdlliNTbhosrRdVm9V4sdhPOugd1bjj/kjF6z7YcE4vLq3Wqp5sV1tUwa5ZzSmz45m8yBa7whK5VhOOVFdYC+Twfhk6DCANO4Osb6IrOois7dEFAwVn3kQs3XFwpqrogYG0FAoRz8v4lNXzlWhgIf8V0qONshXVMsGeiWyU2fPPXCus1LtZhCjdBUujY2kNiKRQ6DRz9q6SQb1wpOieGWzMIUnDWfeTCDRdXiqrN4KnEbCSck/cvGegr18IgmUjQcbbCOhkvpFOKEhu++atUBeHmhYDjRjJy0/KBmHTGTc60KhRG3U1xj3/117n7vpA/+IvTIZEIX7lK6ubMO401J3Rs6B7UueHiykIimVChkNA9qHPD+TfIyLB69WoLgyTDQIzbOGzUh8N0uRYbDY8NfWTQubGOG0qtEqHc0UpLN1XnOipkaZDyNHD0rxLKvnFlsZHy2NA9qHPDxZWFRJIhoXtQ54bzrxXWyfg3oBTlljtW/yqzhq9cGyICOtfxMiU29JFB5/r6V4kNvWedG6Fc22PtGFpZaq4MNzSZKcY06pGforOirbHqRUDBWY8NF264R36KqvVabdcrCBDOyfuXVPKVa2Gg+C5Clo5zo+YFXa6uc4TgNHlXCs6++ZvMlgzhIF2rcPMRiRA9W2EtkM/zYeg0iDDgBL4iHAW3XC4rOnsvtjOhEVBw1n3kwg0XV4qqoc23hl4ECOfk/Uua+Mq1MPC6LI4zOs56gasUT77+Vdr6jhu6znGg1Jx9KjjH6l8lNlIi1wrrJsqI0GngO5DFF+iKzk3kufhNVXB2Gar0tuHiSlE1fpyaSALhrHtQ54bzL0Gs92w/eU8sEPV0s8I6MUekUJASG775q9QMsY4byci1wjqF4RqXSqHToIGBrugcF0xN2a+Cs8sQqbcNF1eKqk3puriMJpx1D+rccP4le/SerbCOy+uefvV0s8LaA1gTnVBiwzd/kylwhTN0rSIcr6ywFsjn+TB0GkQYcAJf30BXdBZd2aELAgrOuo9cuOHiSlHVBQFrKxAgnJP3L6nhK9fCQPgrpkMdZyusY4I9E90qseGbv1ZYr3GxDlO4CZJCx9YeEkuh0Gng6F8lhXzjStE5MdyqCuru7p42bVpnZ6eXu3LlytbW1sLwX0tLy/z583FIJwuFwpQpU7q7u71tG3VGwVn3kQs3XFwpqiaMHnc0PCuI1tbWlStXCsW6u7tbW1tTFQBCQ/y8IXn/kia+ctMTBl7o8nRGx9kK6zz5ul5blNjwzV+lKgg3L5DyKZFrK9b1xlKGrw+dBg0MdEXnhnuivb29atlE9VZHRwcV3/OHC+uOjg4o3NnZOWPGDG+9hQuSJxScXYYqvW24uFJUTRg3OLqW3FqOtsLad7FGjxxbjqkVcpGf19PNCuvIAc9Qh0ps+OavFdZrHK3DFG6CpACyITKxRAqdBo7+VVLIN64UnRPDjQR1d3dPmTJFrEeKw5aWls7OTtRbtQrrjo6OqhV5whZxcQrOuo9cuOHiSG7RMQAAIABJREFUSlGVW5QAjRVrumvibiXWnDlz6A6qs7OzpaVFRAs/TNsTDFuxTiB+MiFCTzcrrDPhxJiUVGIj+XmBbEyJXPtATEwhl8ZuQ7/OPcIXp1Pc41/fF7YrqZswxFhlpJqpra1NKLBy5coZM2agsKayCVtBOjo6eHXFF7BFPw05DB0bugd1bri4Sk9IUCRcd911tK+jra1txvDfypUrOzs7p02b1tHRgcJ62rRp2PuBWCJfi8OGBIBXKIWE7kGdG86/NDjoPduXF73+iumMMjLE6l/lIyC+ctMzRMTklJR0q8SGb/66+FdpmxK5VlinJESTUCN0GvgOZPEFetqGyPb2dr7QyGnUylRvKVtBknB2nTJCx0byA1l6QgKOprVqKq/bR/7a2tqwFYTqbCuscUddKpVcIscK6zrzO/zlysjQwHnBPmke3qPRtVRiwyW7UxtXwesc22MdXZSlvielIqEJT7GgUY/8FJ0VbeNgURVVKBRaW1unTJnS3t5OUmiLCF/ARr3Ft4LwEtx+vAgHhYirtIVER0cHeZxigGjaFMQLa9sKAqcToY85vtz0hIGwK2eHOs4h8tfd+75byHSdc+agBpqj4Oybv8oGUV//Km1TItcK6waGZdKiQ6dBAwNd0Tlp+CrlYenauzu2amHd1taGfdWotyq7bOSRgrPLUKW3DRdXiqoJI8gdPWX4j9ak8atWODqjK9a+v66Jw7/kRL1n+2VOYqGup5sV1ok5IoWClNjwzV+lOA43LwQcN5KRa4V1CsM1LpVCp0EDA13ROS6YqvVLJRRfdRYr1mC1trb29PTg/XrYY33nnXfSDuxyudzW1obm1aQ14JyCs8sQqbcNF1eKqgkDh8K6beSvvb2dHlNMnjy5vb3dCuv4Cq/0hEHCUZewOB3n+PzrUgDpOicMYI7FKTjrI7/ODTcvEM56zzo3QrlWWOc47KVpodMgwoATOvkGuqKz6CqZQyxUo5IGgVoZv2LkW0E6hv9aW1vvvPNOLF0no3MQKQrOuo9cuOHiSlE1iKURXkOF9Zw5cyZPntzZ2YmSmn6oKn68aFtBBPIukZPmFWv9p6i4GeNo8PfJ8PNpoPV0y2th3dnZSUld1QX8Z+gYzMmzfE9g1bbiZHt7O20bK5fL+ounIKi9vZ1+z9Pd3d3W1rZy5UplpQZPz4TcSA6V2HDJ7nDzAlmUErnNXljzDCkUCvj9GTlJBDq44jyVVsgo4qLMQgTXOo8L4iZCp0EDA13ROW64qvbf3t4OR/ML6BdrdIYKLFRa89l7rNva2jCM8uYNpxWcXYYqvW24uFJUTRhGmkoLhQKSnYdBe3u7eElIrR8vktq1QithoyCOcNY9qHPD+ZcU0HvObmGNGpqChyIHJzF0wAsNJ/R0y2thTY+gaoGPnV08Z9va2iZPntzS0oI6oVZznIff6YzifX4lXTZ/ZFpRWlG3StkNTcIRSmz45q/LEwmlbUrkNnVhLe5KqcjGHNnR0cFLbc71hjIvmoneddddeYJ55+BwoezSKnQaxDpBKkmCl+m6WB1t2yAr1h0dHbTxWoyA7e3tU6ZMaW1tTWFtHTo2kh/IFFWj9bVvb5TUPM1FE2wFEeerLmrGN/8J6QEPCefk/Uvq+cpNTxiI1Rk8wgKBn2FgFigUCjQIUGVGZdP8+fP5OxkDuinuy3Sc81RY+/oRPzqnwnrx4sXY3YeFYepEGRPgL+/oIeoKPiDwwrpcLlNxQrVKW1sbIo0T0AG3ARAdFaHEhm/+6vN+OuNK0VnY29SFNZIBcYYzVBwjNOkCUTCJz1mLtnPmzJk5cyZ67uzsbG1tnTZtGgp3sBIjQqeBFdbwEV+iwMlyuSyWKukyGogXL15MW66x1E3RhUd7vJ9G0aFjQwwoQn+dGy6uFFWF9LgPvVMjSST/0iQHpwtlvNMhyi9xZaMOCWfdgzo3nH/JXr3nVK1Yi8JF3DXxQ1EewbO1zuOCBhJ6uqWzANJ19gWTV7RVLyaP4wX2rcN/+JIupb/vRO91evDCGk8+q966e8eltrY2UcxUtavekwrOvvmrFKmxjhvJyG3qwlqsSfOoQg3NT4IWCUDnRWF95513trW14eFve3v7nDlzWltbffMNUiInQqdBAwNd0TlyfJq5QwVnlyFSbxsurhRVm9mDkdtOOOse1Lnh/EuG6D1ntLDmd1Otra1z5szhS4xEp+1xlp5u+Sus+W0Svyni+UXX4AczM2fOFB/lbWlpmTx5cq2baurKW76LuoJfwKtwOk9rNzyiKH7w9k9eSddaD+JGhaCV2PDN32QKXGGUrlWE41VTF9a00Iihja8gokoWjqFDkQD42QEVzVjtxo8M6Nds84c3RVlhzSH1DXQldXk/RjsioOCs+8iFG24gU1R1BMGacwQI5+T9Szr4yk1PGPhuIeDPIvDLZpp9RO3FudwXDaR1nPNXWPNyVi+sacUaC9V1+ci7qExVxLRp0/AknGvCC2sShDMomtGnN4pwcV1K+l6sxIZv/ua8sC6O/HUN/40cFXt6ejjNuZyFa5YuXQpaELytYBWLxa6uLsU9vq6N6gLc+VHh61tYiztU/gMmFNadnZ20G4Se11CWNrawBv7ciT09PdxHnIXrXfzb1dWFfnjnQeSmITaiirE091MoFOAjQfDYECzKXxf/hogrC4lkAolCQni/3vwN4V+KMV+56QkDvsZJ5RF9g5PcJIozXvRU/cFGClesySPc9RgH4vMvRpUQckPHBt/EhRU3ELhBIo9jjzVVwHy5zbeQRRHMc5n3QG9lxaqz6JD0JH0aW1gjEgThm78u/kVbIbQh8xHpIOxt9hVrHtb0mwAK1rq2grS1tSHlsHpNT2Toxw20AZdyqbGFtbAXh/r9ZbiVRepc71nnpvDHi0AsZ4QyFek+cuGGiytF1Zw5pbHmEM7J+5es9pWbnjAIXlhj+YZ+vDhjxgxbsa4a5Lr3fceNqGJD3BRBVXic9i6j6sUas++eZt/CWlwAESgwsMO7sYU1MBGE7kGd6+tfZbVb71nnRii3eQvrqmUu3hOCVWceLpzLH9lQV9hJwtvS1moqr6tK5P3HTSvDTWIBJ2z0lavoLLqyQxcEFJx1H7lwww1kiqouCFhbgQDhnLx/SQ1fuekJA5etIFgNBZHCFWsRGPwwf1tBuHUBC2usNHd0dLS1taHs5l15aVThYKEfvPcDT8J5YU1VO3QTzz06Ojp4P9Q5im/IioRQctA3f5XiONy8QBalRG7zFtaIXTxtoYcvWEIQP22k0ZO43sAV3ClTplC3dJ5qbiusvcmsp4GtWHsRi+lMTEOkr39DTMyKqjGB05zdEs66B3VurBNkesJAFFKoeHjYoLKhrSDz589va2ubOXMmphu6mG8U4c0bSOs4h8hfskWPHJ3rG1e6zrXA5M8TcJ/jJeiLqvS9JzyppiqZImHmzJlBnktTFV5VmY6ODrq/opqh6r0Wwgyhha7AojPUCa9zcKUjoeCse1Dn+vpXKcr1nnVuhHKburAul8tisUHkg+AiNL2FNcp0+qYxCmteTHPaMaDDNQ+dBhEGnNDcN9AVnUVXyR+SQzG2VlVA36xftUlDTio46z5y4YaLK0XVeqHj60C8rf55CHEHjoZ8AuM0LtA3mOGylBCEc/L+JfN95UYYBtECLsoa6hzLk9jF29HR4S2JrLAO4n3fcSOq2KjqSiobar1xvGptUDXAql5Jy3l4+k0N+fIcuhK3czjvVU+5krcKQSs4++avUhz7+ldpmxK5zV5Yhwim7DYJnQYNDHRF54Y7oqOjY9rwn7gf44pZYa0MguHiKsKQqFVYcw9WpatW3ryY5jR6sMIaUJTLZZcpMFWv2+NGEe1d+8TtN3/xMC+s0QRXerttyBk93fK0Yu2FN0hhLXZi8BVuZV4gWXz8oZJaPMHgKmEqgUTeP27YSAHOwk0d7y0SWokNl+wONy+QRSmRa4V1JAGWjU5Cp0EDA13RueGg04CF8Y70oYlzxowZhUKBLsDyA97q33DNvQooOLsMVXrbcHGlqOq1Sz/DJzZ+Ja+bUfHQ22rpsVVbW1trayteDYR3x2JW8y2s6QK6HrMpfsVBykANPmviYjwlo07wPI0b4kITzroHdW44/5LOes8pL6xdYE9bWz3d8l1YJ+ALGknCvbMviHpiegrSJPg1Smz45m/kCy6kdkrkWmEdPIoyf2XoNIh1gtQTTNG5sf7AgzxRDNFjOywYYFyLewB1REPB2WWo0tuGiytF1XpB8C2s6Sv09JknqrBRWGPjI67hxTSnoRVWrIlLJTKnRSxRYU0XUERxGr3Rw9/JkyfjDbiQ6EIQzroHdW44/5LOes9WWLt4tq62erpZYV0XmDm7WIkN3/zV5/10xpWis7DXCuuchbpmTug0iHWCVII1zT9eRMUsdtyK2ogumzNnTtqe8IpACR0bYkAR3erccHGlqCqk+x7qhTVVsVgJplsmFNZYOYbH+fVE01oy/5fCgNfEvCxGV6S5t7CGRVwWneT7CnCZC0E46x7UueH8SzrrPVth7eLZutrq6ZbOAkjXuS7z7WIFAQVn3/zV5/10xpWis7C3QMelUmn18B8OBaFzS6VSV1eXaIJDve3q1asV9yhONVa9CBQKo+6Gd4jQfeTo39WrVwtxOPSVm87YEGUNr5NEbYT9cKjD6vVaMteHjg3dgzo3XFxFGBJ6YY2HEuQC/hpNbNLgZTGPCk7Dg4gTflfGv7gmggdSaP9loVDAtiK+OQSFe7QxRiGhe1DnhvNvkBHJZg0EVdyEMjLE6l9l1vCVG+EQETe8me5fiQ19ZNC5vv5VYkPvWedGKHe00tJF6lxHhSwNksmu0Gng6N/QaZDadSkUOqhp8MJRURvRPoHnnnsOL4pJxtf1SgkdG/rIoHPDxVWEw0VWCmvyJl5S1NbWxqv8en0d8HoKCd2DOjecf62wDuigZC5TRoZY/avMGr5yIxwikgE5o1KU2NBHBp3r618lNvSedW6Ecm0rSEZDOozaynBDk5nSaaMezSg6K9rGzcJSIgRhC7W3sKZVRuzERZNUEQrOemy4cMNtFVBUrRdSvbAWq84htoJgGwkphhVrEHQeMQOCznvDjH6wOGXKlCVLlrS2tmIrf72GB7mecE7ev6Sbr9wIwyAIGk17jY5zo+YFXa6uc9O6MnLDFZx981fZVhFuXiDrUiLXCuvIgy29HYZOgwYGuqJzo4CuuliIkggEqYeH/lSlRfuwPkIEFJxdhiq9bbi4UlStFxC9sC6Xy/x2SPx4Ea6Ex3khzmlohXqaBwOnKbSoXKY6vq2tjS5ADY1qG1+RKJfL4hpIdCEIZ92DOjecf0lnvefUPstyATydbfV00wtcpXjy9a/S1jeudJ3TiXMWtVJwjtW/SmykRK4V1lmM55A6h04D34EsvkBXdA6JgnMzXmyhM5RHKLOIhcKaNuO2tLSIVUz00FhCwdllqNLbhosrRdV6MfRu6aHHCyhe6ZeptOFn5syZ06ZNozdv8Au4x2lLPaph4WsU1iiFqWfU6PwNeq2trXPmzCEWNoHwbdZU92MzEirvekGodT3hrHtQ54bzL+mj92yFdS2vRX5eTzcrrCMHPEMdKrHhm79KzRDruJGMXCusMxTGrqqGToMGBrqisysc1p4hoODsMkTqbcPFlaIqMyh6UvyWMXoBKeuRcNY9qHPD+Zdg0Hu2wjqxYNHTzQrrxByRQkFKbPjmbzIFrgBN1yrC8coKa4F8ng9Dp0GEASfw9Q10RWfRlR26IKDgrPvIhRsurhRVXRDwthX7K/jDB+/F+TtDOCfvX0LSV25iYZA/z9ZlkY6zFdZ1gZmzi5XY8M1fK6zXBIMOU7gJkoLM1h4SS7bQaeDoXyWFfONK0Tkx3JpBkIKz7iMXbri4UlSN3FO19mBELiiFHRLOyfuXoPCVm2QYpNA7iamk42yFdWKOSKEgJTZ881epCsLNC4RPSuTainUKwzUulUKnQQMDXdE5Lpiasl8FZ5ehSm8bLq4UVZvSdXEZTTjrHtS54fxL9ug923JMXF739KunmxXWHsCa6IQSG775a4X1mkDRYXIcQBX3NFGQxm+qgnOs/lVSyFeuonP8gDWRBAVn3Ucu3HDjhqJqEzksflMJ5+T9S5b5yrUwiD8E1kjQcbbCOhkvpFOKEhu++atUBeHmBYIoJXLtAzHpjNhYtAr9OvcIX5xOcY9/fV/YrqRuLBg1a6ehY0P3oM4NF1cWEskEKYWE7kGdG86/NDjoPduXF5OJASqsMVx7CZcvLof+zIdvXNkQkUx4xDRr+Po3dOToo0qEcq2wTiYCUyEldBpEGHBiaPYNdBsikwmd0LGhe1DnhosrC4kkQ0L3oM4N518rrJPxb0ApysgQq3+V4slXrg0RAZ3reJkSG/rIoHN9/avEht6zzo1Qru2xdgytLDVXhhuazBRjGvXIT9FZ0dZY9SKg4KzHhgs33CM/RdV6rbbrFQQI5+T9Syr5yrUwUHwXIUvHuVHzgi5X1zlCcJq8KwVn3/zN+VYQREYDgVDcA/WMcEdAwVn3frgCiBTWe9a5vjv83DGxHgiB0LGhe1DnhosrRVXzZoQIEM66B3VuOP+SCXrP9uPFCB2td6Wnm17gKsWTr3+Vtr5xpeus22vc4AgoOMfqXyU2UiLXVqyDR1HmrwydBr4DWXyBruiceX+kyQAFZ5ehSm8bLq4UVdOEaOZ1IZx1D+rccP4l4PSerbBOLLz0dLPCOjFHpFCQEhu++avUDLGOG8nItcI6heEal0qh06CBga7oHBdMTdmvgrPLEKm3DRdXiqpN6bq4jCacdQ/q3HD+JXv0nq2wjsvrnn71dLPC2gNYE51QYsM3f5MpcIUzdK0iHK+ssBbI5/kwdBpEGHACX99AV3QWXdmhCwIKzrqPXLjh4kpR1QUBaysQIJyT9y+p4SvXwkD4K6ZDHWcrrGOCPRPdKrHhm79WWK9xsQ5TuAmSQsfWHhJLodBp4OhfJYV840rROTHcmkGQgrPuIxduuLhSVG0GTyVmI+GcvH/JQF+5FgbJRIKOsxXWyXghnVKU2PDNX6UqCDcvBBw3kpFrK9bpjNhYtAqdBg0MdEXnWDBq1k4VnF2GSL1tuLhSVG1W78ViN+Gse1DnhvMvGaP3bMsxsbi8Wqd6ullhXQ2zZjmnxIZv/iZT4ApP6FpFOF5ZYS2Qz/Nh6DSIMOAEvr6BrugsurJDFwQUnHUfuXDDxZWiqgsC1lYgQDgn719Sw1euhYHwV0yHOs5WWMcEeya6VWLDN39zXliT/aVSSX91ts51fLG24p5MhFdWlAz9OndH/4Z+nbutSyUWWqFjQx8ZdG64uLLhIpmooJDQPahzw/mXpiS9Z/vyYjIxYF9eTAznLAqKadaIddxQqpEI5ably4sF+0sEAdxHCUKfxiIMuHrlJoKKCVmDgHANDvXYcOGGiyvzVmIINHbBRZkCqbBODIcmF4ShwEuk9pPmTe6yxMz3hgSdSX5eSJXcVGwFUR4KEFjKzVyjHkUpy2a6zi7ccI/OCT2Ty6NIR8NwDo6VjqTONZwNZ44Ap/XI0bkWV1EhaThzJOOIq+XLl8f9cogs1leNquuikmuFtUictYe+A4oV1gBOx8qFG8dARmrrWplcONd30NeR1LmGs+HMEeC0Hjk61+IqKiQNZ45kpuNqcHBwaGhImGP+FYBYYb0WkKiAEPj6BtysWbNEExzqbV24mU5s4MMJHY1U2YuBSdfZhZsqe+EmF4v0tmYvQLYbGOQXYaJHjs61uLK44ghwWo8cnRs6roaGhvr6+vr7+7kmnI5JLo0q/f39g8N/VljHijN/MmAr1jy8R+nEHDAqcpgyuQIQunEaGhqioYFzdaxcuGIAhfTBwUErgLgLHNEQOEfYs+59k8uhLpVKNPXyk6B1JHVuQJwpvwYGBvjEr/escwPKhY2c0HvWuSY3KiRzhvPg4GDf8J+4eyyXy7FuBaGCvq+vj2ZPmr+C+8jiOThWImKtsObQjdICplHGCNWolfLmlDs0NDQwMCBqa91HLlwMKLykJtqxlNS1gtyRKKv4X2/rwjW5HGgXJPW2qcW5r6+P8ouXtoSJbpHO9bWXCnqkNp/49Z51rq9cvrbEXe+Y3SaXg6n7yIWbOZyxYo0CF8SCBQt8oy60vVTQ00q5mD2DZHdoub4W6d7PgVwrrPlQMEr7Ot62ggAsHSsXLhKMCuuh4T8MSbQGADUEEYlckkXVhhXWAmE6jATnyHvWtUJcmVyaAqnA5beRyDIdSZ2r49zf309raZRfYuLXe9a5uly9rQvX5PKEckFSb5sVnBHSVFjT7RzPsqGhobgL6/7+fpILZYL7KCs4B7cosbiywpo7ZZT2dYD9eBFg6Vi5cAcHB4vFIuZdLKfR2OSya03XCgMKiulyuQxab+vChVxgywmXnvW2Jrc5caa5VmwFERO/Hjk61zeuqLAm8MXEr/esc33l2oo1Al5HUucazoCRr9GKBSCaO/r6+hB1FOp0WbRbQahnPPkZGhqywrqqj/hJTke1I8AKa47qKO07oFhhDbB0rEJw+cCEQOe702j46B/+gxqCCCEX1TMV9NQhH6SIDtcz9aa3tYmKO1HHyoVrOFP1THswRGFdLpcx8fNygbsGtO4FL84kl+6QSS7ulklowJ7rlYtuHS0yuRxJr385V8fKhZtyuUgfhDRtySiVSt5Hr4SYjkZAe0kc/hU9Y2EouI8CyuUdgtYt0rk5kGuFNSKhgvB1vG0FAV46ViG4fPShwhqDAjZbl8tl2gqCiRn6EBFOLkYlrJTzbun3VSF6Rid62xwMKLA0iBfMXg6XHhsuXIEzBTnl1ODgIC+scRJE5HKRYqJn5HiQyBFtOYxE44bcy9LbunAFzkK0S896W5PLodaxcuEGxJnPX7QWMzg4iI1PUJUSgQ51rYLI5b2Vy2X8FBg9Qyso4HuTGUQu743TkMtPgta5OZBbKI78dQ3/jRwVe3p6OM25nIVrli5dCloQvK1gFYtFweWd9/T0cC5noR+TCyg4VjgJQnA5mIYzUAJhcQUoROTgPBGCa3HV1dVFyHAoAJrFFaAQkYPzRAguB9PGK4FVsVi0uAImInJwPp1x9corr1g8Cx/lIJ5txRo3URVE7u+oKqwtlxtrr/dmmpavhoaGaOWY9oHQ4jT2hNAaQFQr1qQDYCkWi9gEgpO0KqBj5cLNwZ06sCJCR8Ps5XDpWLlwKY+4LIpkyjKspWELFl3pHu3cv94VNez+hGL8Ghd7uVx0DsKlZ72tyQXIvquhOpI6N1U413q2gzkLeURv58BkR0ToHy/iCQ9hRVIwG2KW5EiKa3x9lCqcEVrcIpwE4cKN0F4rrOGRCkJ3T7lctq0gwEvHypdb6/X1NApQgYtBCrU1Hq5hKIE+RPjKLZVKGH347mpqXrWwpqHQWxBw0UHk8usFbY+wAYgLknrbCAdQaEtECuXSBCziis/u4u06g4OD9ByZGuoWKVwhV0zqlL/4ORehR9cEQVKRS82FvXTSvWeTy5FsqjzyxhVFOG5HxbxAKUatxHuskX2Dg4NPPvkkfymegBeH3niGdMQknwq9W0GgCV8wQlsIEoRXLi7Q27pwcxBXVlgjTioIPSzK5bL9eBF46VjpXOyT5nMqeh4YGKDEpkGErqFqWAxVvESm5rpc4gqhNERS86qFNf2uK4G3kQABTgSxiF/Pab1tDgYybqytxAANzL7e3wwg+LFiTWcoC2hixu0rn4zRuY4zVQ98YuadVC2skeZ6z75ci+eAPvJF0sYNjiTFFSppPungTdX8eqQY/SKov78f+YgVouXLl1fNBd5P1Ximzuk3EuIGlaRQD/xtJPhdMjo3/wIKIvh4JVg6VoJrhbVAb+2hgMl7kRXWwETHSnBpVKLMHxgY4Hf5fBiizsXbOVBSE0FvBcH4An2IEHK9XHycgt/o4zIUIrza9r44CdeD8JUrBkE0JCKqxBbd6lpVHbjRg97WhWtyAbJjiSO8gLkfsV31RpG/FQSVNLKMkhRlN1cVtJCL85jCq8Yz9UxtoSG1xSCg9OyLlcUVd4QLknrbZsOZtlRhxhGhK5780GSBhz/gIsIpC+huMwTOUIPPoeR36plol2WgZvNvhPZaYc2HoFHaN9BtKwjA0rESXBoO8CyMc/EMGj1ToGOmpzEIowbeZiAGOGrOe+YdgostKHwhDVd2d3cTDXFg+faslM562wgTG9oSYXIFIFULviBY6Ujq3Lj9i6nam0rYUsVxoDSkiRnzPQjH5zPUT9WCnvQkrCi7uVbuXogbZ6+2OJPLuIJ1XqIJ7aX5gqcJxTNe/8pDmi4Tmz289736uOH9jQTlJsn1ls5QAJ809zqOzuhyLY84bjpWgmuFNYdulBYwjTJGqCYcUEZMl//rWAkuTfk0LgwMDBCXFwRY6yIxxWIRXzxGAU0Dk3dA4ZpxuWiIC1CUC3F0AR/IaGTkPfCe0SEIF64NZIDRd1XScK6KFeZ7yhq6hq+00UIa2ootVbieUnJoaCg0zjS7Vy2siUU9Q2GoRERoudTcxmfg6YKk3rY5xyus7+AhDxE8njFfeJeQcIYc5PuBGMpEbzyjesZ2SgglFk21wWdJBAwnvHLB1WPDhZuDuLLCGnFSQehhkQPHV1ib4FtB+LCC+3g+uWJGJw29K22ownUfcS7GIFgtCmsMkXQBvvhIioklbd4zOgThwrW4AoxWWHMogqOBVEIe0fyKCZInILY20fsKSCLyiw5945me/AhtsaLG81dM/NhkIvIroFzluZDlEXeHrwcVJPW2zYkzwlXkGsUzghwuoMsISUousMrlsv5WECQj8hdtMakhjyAa01bVHdjowXdUaU7/cnw4reeC4FphzaEbpQVMo4wRyraCjCDh86o+gSSf1/GDDzqJ4QA9U2KLJhhQRM+8FYYMDEwYDekyXlhj0ZoPTFgpF92Kz1xhAAAgAElEQVSiZ+959GwTFcDRfWQDN4CKKq4w2fOoFjeKXCg+tEQnKV+QCL5aeSd1dE55Sr9VoOVzdEtKYtcpmnBCjxyda3EVFZKGM0eS4opWYeimlKYVyhqsHIsmlInendB0mW9hTZ3XKqyx2YNPcHwQ0D2ocy2PuCt1rAS3QMelUmn18B8OBaFzS6VSV1eXaIJDva0Lt4FyC4VR6GApES4W6W0baG+E/qUBiLDq7e1dvXp1qVSik5xFF5Bc7/ngEUtb3+iJGDy1evXq3t5eOgnRNPZRzR2hvRDqq3M+/Gv2cgQEHXdcUaVLkUw04rlqElFMrlq1CsEvFNZHJMrfqj3T6wi6urqQX+iZziD3cZ4Tulyda3kUFZKGM0eS4opHO6UYnVm1ahXNKXRI8w417+/vX7VqFc10osNly5YFnBdEhkIK+QhzmbhM96DOtTziztKxEtzR6lAweI8BHS+a4NClZ71tAx1vhXVA/3qnT4wIFFd8MMLoQER/fz8KEToDob4xKSKHhKI5Cmt0C61oYIJcNAEhesZ5Ily4DYxnsxd+dPGg3jYO/1K4Qi5mephDZ6jABZdmfbSlHEQTTqBnfhI0calbMaNTQlFc4QJ+TZCeIUgQets4cCYFTK5wRJ7Gjf7+fuFfTAqwGjeKWK8hVl9fX+/wH93HUkO6twwSOUIuxIFA/uIMUonaelWNSi4kCkLX2YWbg/y1rSB8sX+UphgaPfZQthUEkAAr8WY67ODs6+vDxXhCTU+Kqa7FSXrKxvdveB+BoSvIxRlOCC76pGuIi2fTpCr/vVdUcrlKvg/W7dEbh0t4kLN8kdTb5gZneubLf2KIOKdkRELxvc7UCtHuzQUOtY4kuNAEbUkB5BFdwB9Yoy2acMKFmxv/AhAdDbMXQLmMDPghL7Z5UNDyzimPKMswfdAh3T3iJG8VTiveFc9fb8+1fucQTi7vH/nLTxKtx6QLNwfxbIW1N2DWnNHDIgeOF2ZHYi+2SvOBCaUzJFJJTfM65NLJqgMZGgoCbcV5OqSVA87ic79oKwZK8y/HTWDFWb6Zorc1nDmYOla0XYrShOcXlapoi8KapxK9FYT/VoF6oJkbbbkyoINzuUQ0p4mZpx5YwXtGExB6W4srAOWYoc2GMxXHiGTKJkoWghTfN8A1SEaacfitYxAv1HorCF6fxeVie3eQnuka3YM61/IoNM5WWHPoRmkLuFEshqmAd658Xqdpm55YYTEbBA1MwJkqBjH3uyR21fUDjIaQK8zEYUB7cT0IvWed62Kv3rPONblwX8oLEQpg+pdSSRTWqLz5HIzXRyL+3e2lrnhcee9OLa7ccaYeOM68T9A2XgEKHSudW2vWQDYBZx7tPBeqppgyqnh/vEg9IJHJLpJbtXPdIheu5S+CSvEgXSNwtsKaQzdKC5hGGSOUbQUZQaJidZ8PN3QBIYnnzmjFfytNrYglxg4MZLwh79l7nqpz2nMmuFDP178h5OpaBeHaQMb9pfvIhZtdnCk7+DNiyiPvcyHKAsKTf8EUJQKgrhdJ0kE8cYIgsWJneRQaZzT0ndSzG8/cRk7rMRm5vbhHpZ3TXBNMGXSSxzOmKsop0lnkJrqqZZEorFFPo3Mul5ShxWwIqtUzNXThRo6zLxq4gOOMk+4W6WhEaK8V1sJraw99HWCfNAdw9AgMOY+hgS6ougZALP66PT4fY8gIEegYj+jROZQEQRd4CxFcQETWE1uY4xvPZi8Q07Fy4YaIZ2iFh9Q8O/AYmp4L4WIikAu8sBbNfYs2YS9lN5JdcHEe5bvFFZwisMJ5Ily4LnFlcukWFE9++vr6KEcomAcGBrineDyjIdqGeNEq3wpCHUI6kgj+RX5xlVw8qLeFXC4OtN7WhZsDuVZYI04qCD0syuWyFdbAC7s/6QymcxoF9BKW1pVFLY6eQyQYpJNW3jKCLqhaiLjIRVs9cnRuCHtNLhDgRJ5w5nkkpl6sXVW1lxrSv7wg4EDVVVgL6QMDAyKPSBZP50jkCoV9dbY84ohVjQ1c4MLNB84U1QQI5jKaJjCbAC4Rz3QBzTLhkKTFcrTlucMXm0gu50IltMUZTrhw8+Hf4GhEaK8V1hz2UVoPx3K5bFtBABYGIzrDhySsSeNiQSjr2XSlGMh4c/iIV88YCqsW1hiY0JZ3yOkgcvn1oPWedW6EiQ19iDC5ApAM+ZcmfvxWgdaxeJYphSYm/qjsxSoa1dAirpBfQDsquejQ4llAQYeGM2ARMYnzRHi5/HZRPBfCbIJOvDhj9vH2jFa1MpT65zeouDWlVKJD/EaCdwg6hNyAbW0+AlC1PIgLhBessAYyFYSAqYI3fOBNMFyjt3XhpjbQ8fiMdnzi8ZlvYe19dwdgJELHmV4zJDZw02hFK+UYmES3uhdSi3OIR41kuNkrAkCPq1ThLEpYinaazjHx1/IvtQ0dz3gBGaoH6pDkDg0NefekZhfnIJlSC2dYnaG4ahJ78XN5X3sR7VgqRpzjLTpR+Zd6HhwcXL58uZglkWIDw390ZVRyEai+aNAFJheI6bkvuPaBGAJE/qu/3jwHLzAXBiv20twZ5EMAdLtPuzuof/riVG9vLxXQ1BUXrcily2rJ7e/vFy/kpyU9EtTX17dq+I+UoSI7Ern1fpiGC/Vt21RxpfvXFys9cnRu5nCmT1fwTykRepRxwAopIKIuhL2Uqn19ffiUEvokofQvsgxcQdTKX+gsrseh7kGdG8JekwsEOJF1nDElwaiqFiGkV69evWrVKvqwC9piEunr64skntFhf3//ggULSqVSb2/vqlWrSEnIRTpHJRcggKiKBriWRxwKHSvBtcKaQzdKC5hGGSPUueeeO0LK//W2LtyGBDqNAr4DCopXGhcIFBTWGEqIAGQ6GrXsJRH0CVkI4p+5osK6t7eXxiYh1HdSryWXZOk6u3BNLgLD10f5wBmTqG4vv43kwYy0QoHLs4CD6Zu//GJohW/RcaFVubw5p+uSyxvmw79RWaSjYeOGgjNyhO4VgSRf5UEJi9tItKJ5jS7mXwLmEolGz16WN7spiVBYU0EPNTCZYp3I8gio1oUzWgXxUYR5ZFtBsNJfQZAbKk5VHjTPjxfpB1Ld3d3Y9UVI0CM2+upbf38/f1jMn2HRGIGLgz+YIynKoyga++AWemSGQ6ow6NC79dPXv4pcva0LN/Qj+3p3gAElEGYvoHDxoN62qn/xUJimVajBP0tBmy5ogwqu5wRN/HQGmci7qte/2HhKFuGQ+iRBiDo8OucSia5XLnrQkdS5VXGOpGeTCxiz4l8kBRE0a9Ck5o1bKmQx0+EXBbA6dDxDLtKT9MFbQfr6+jBPEQv/WjwDf4w5/Ayn9QzVuRHibIU1d8oo7euApiqs6XVdyHMiqHrmn1MGfHyA4AUuLgDhizMGMgyFGA3pph/jFLam0Rkq6ElVXBNCLpqA0HV24UaY2NCWCF0rk8vh0rFy4VbFGXumMfXyRINikEtxTjeodKXvZFNVrugZQpEsdAZy6ZC4oEUOok8QyF+cAYGecYYTLtwg9nJZnDa5wdHIBM4UqzCKZxlCHVzufdGQrgkXz4ODg3TbzG9QOU0FPf+xENLcRa7vyMDtBQicCGevybXCmkfRKO0bcM3zVhAaX5BgqF9RPdfCigYO7zrcKMqBPx1PQvHWXqqtxdtI6HeTvOzm6+hcqG/aZ2LCqMuiWj5CJ/AvzoDQ27pwDWcetFgto4xDfpEjvDgjKdzjGatleH8f5Zp4XwGf+ElJPbvNv0giXx95/Ru8reGsYCVWnamw5tdzGl4QdS2uCTdODg4OUs+YPalDSiI89YUULxFOrmPUWVxxRyA2+EnQgmuFNZCpIARMFbzhg+YJdG9hLYaqWlhRZVCLS5DqXCQ2LzJIHxoy6K0g2F7CVyD0nnUu5Hr97jhUmVwBafPkERnutRexTbGB8BZAeSMHDX1jUo9nWnUmcd6Jn5784K0IvlqJC7z24gKvRWD5WqS31e3V27pwTW5UHtS9EBxnWtzhWlG0Y/2FsxB1tarq4HJ5t6QDbptpksK/y5cvR9nNWwna8giA6LHhwg3nX1JMyLXCGv6qIARMFbzhg+YJdJq/ub24zyZYqmKFWb8qF3jqXAQ69cbHO2xBEcoE7DmgXPTGCb2tCxf2cnGgXXrW25pcgIzJlZ/htI6kzvXizEOa2tI07J34Rc/IL9JNcLnCRPP8FVwU1iSa353Si8D4yzRFWxe5elsXrhdnrrZLz3pbk5s2nL2zA55zigwizcm/3uyDXUoeITZIKPqntMINKp67ErFw4ULfMcfiCvj7YgUv8CagdW6EOFthDcwrCF8HNMlWEMy1fEDBwEEDkBcrjCnh0gDLZvgUMyTCSbjL53UAuOHk8ubcXn7esWcvVqJzkwtAdKxcuBEOoNCWCF0rr1xvYY3NITyJRNQJluAKleiQxxXyi3IHa3ioJ+gCmvj1zR712st109u6cL04m1yOAKfzjTNNHPwRKwprngV45knryhwfQfM8EiysSVN6kmhKMXpDNt6Oz/N3wYIF9eavVy56FizfnnXvWx5xPHWsBNcKaw7dKC1gGmWMUE3y40UMTHxAQbVNOzLxM0HCBoMUHepICi5+kgWC5PL6A3f8ou2IZ9b+78K1AYWD6YKk3tZwxh0jnsCgsKYsozlYvBWEe4fogDjzYgLbqVFqoFs+8es961zzLyB1LHEMZ45kwLiiSYTyCM1R/tIZygL8eMAFZ/wsErIou+kQXH6yXC7jrSBKcRzQXsjlhG6RzjW5oZG0wppDN0r7BlwzFNZYuMLKMQDC1Mu/VlV18VhHknNJHF9doE+54qYfVQhJ522hGAgXrg0ogNEKAg6FIxoirnC7SDGPiEXeISPEipdQyVcrkks1BJalUcGTXJ5c/Bpo5RUaUG7Vhr5tTS7HTUdDxBVv2Mw4I4x5bItlIMIKi0EuOOPJD/DHChR5Ab8IwgUgXOTqbV24FldwUL15ZB+IocCT/+ovIS+VSs3wgRgag+gWv6uri+656fV5YNGr7/EpFoljqaQjybn0Ll7eM72wnX/zgr/Vn7d1kettG+GL4kXnus4ml8OlY+XCTQnOFNg0H/f19dGXRGnrhYh54q5evZrjw2kdDbIXgtCQzvT29lLPlOCkAK7Re9a5KcEZthCh6+zCNXs51C5I6m3rxRmBjQ+H8fwKrrNXLmUQpQzpLOYvHOoW6Vyv3OA66z3rXJMbGmcrrDl0o7QF3CgWpRJ9cQqFL8YpukbHSufSp1z5MEedQzoV9DjkhN6zC9cGFMOZI8DpCOMKJSzFPBXWRPOMIOnh5GLipy+34RAWOZbsulaWR8DZ++09znLkGs4cTG9MUtjTNfi2Im8C2tsWLCL4FxCxykPVM7XlsmiTFTWs1fOyZct8vW/+5V6ohaSOcxBuhDjbVhC+2D9KkxtGjz0U33MsmHpbF25jH81gpwceVZPh4Syip280JPFtZ/zxGR5hC4Rd5AZp21icqxpb76Mo0YnuI7OXw6Vj5cKthTMlFPVMNJ5iQ7F65aIfSi6MVzzXaDcI1fcQJIh65YrmkCvOWzwLQAxnDoiORq08oh68bfk2ayp2MZdxob4xCbmURAMDA9Sc+odc4tK/EASukGg/XhSA0GHWxw0rrKu6tVw1DebOndvS0jJv3rxyubzXXnuVy+V58+atv/76c+fO5b1UbYsLXLhIbPTGCZee9bYkF2MEdqSRdL1tVS62e2JSx89HsPWTBqasJxh3UPCBW7QKjTP6qeoFcBsbV1wNTus6u3DTZi8vrCn+kWsApC57xcQvfiNBuYbKu66eoQ8Retu04RxEZ90inWv28vDQsXLh1oszhTrpRsvMXE9O61pBLnIHbfmvIKjOFvfGtXq2whoYciLr874V1tybo3TVNFixYsW4ceMmTpy45ZZbFgqFLbfccuLEiePGjVuxYsVoS7+vCVbtGc11LhIb13NCb+vCJbmY7AMOGaRbVbk0MInvuvFuMfdnPcG4g6ywFmg0Np69yigRi4urxnNAbi17KR2oZ3HXGrBnoZV34i8Wi8gvTPyU0aItJBLhwq1lr3vPulYmlztRx8qFmxWcKR0co446wXxESYQ5kd74jjd70J1tEC/YW0E4SqCBM86AcIlYvW2E8WyFNfxVQdRywOzZs8eOHVsoFDbYYINCoTB27NjZs2dXtMxvYS3MxGEtrOgCcGlgwkhEK3O0l5Su5IMRLs56ggElgYY4j0OzF1AgcnCGEy7cCAdQrlLoGyeKdheL6BfGPLnExF8sFvn7dniuOcpFMSGgoEOLZ8BiOAMK30zRsao3f/nNqt4znqByVflDVB7PPInK5TL9OoJykDIa785K2F6uvG6vzq0XZ5MLBKywBhQVRK2AW7Fixfjx4wsjf+PHjxfL1Y4pVEsulOOJjZNE6G1duPTaOyEOh7xnPrVzrWgMEpM93eX39/fTlVhIo0PaLtIQe21AgXNzGc9p82/w10d684s8RZO6mOn5Ia1YY6anXBOv+eNOB82zGydB6Ny04Uxq6zq7cM1eBEaqxg2eNYp/aTsH5iPYwrNGPPkBiwprtOWp5x51FlfwRariStHKCmsOziitpN/s2bPHjRtXKBTGjRvnXa7OiuNHTR2mFHvpyiAFrqiMqaH4/ASVy5BOBQEd8kHKVqwBEQjdRy5cG7gBckPylyZ+Xw/29fXxHIHOg4ODtNImEhBJRP7lbTnLV66yJq23tbiCjxoSVyRd95ELN2f+5Z9hguMop2jNm36r4H3yQ5uswiFpW0EANSeC1Bv8etDhvIDmUcm1whqQVhCKe7BoXXW5uskHUOzjBJq8sKapnd/N08uJvK3QPKpAR4dEKP6lC0wuENOxcuHmbGL2zX1He+kDE/ALETTxU2FNmcWzCWcsnoGbS8TqbR39azcwAX0UK85YdYYyqKrpyS1yCvs96Eo9Nmpx7ceLwJkTWR+vrLDm3hyla6UBXUE7rasuV/tOrnrPOjfWAUUZ1uuVKx699ff38xUyvgZAhfUo7h4q6wkmDMqHf7lRukU6t964MrkcAdC0Yt3X10d55534g2/lQp8gdA/qXPMvYLR5gUPhiEZ8cVVroYdyiuTiuRCf5kJbZIW1CAw6zPq8b4V1VbdWf90eLl2xYsVhhx3m3V1NF+iTjQs3vgFF1yq4XHETj+GGzgNA2hAyNDQUlVz0DELvWecGtxfiQOg961yTCxgROfwMp3UkdW52cfbmF2HCt1ThGv6braxPVNz1vrGRXf8KM3GY13iGgYJoiL34zQ/f7EGK8cKanruKqto3JmtZZFtBhOvpMOvjVaE48tc1/DdyVOzp6eE053IWrlm6dCloQfC2glUsFru6ukZ+Cmj/x44A8OdO7Onp4T7iLFzv4t+uri70wzs3uYAFhOEMKHhM4iQIwW2SuOru7iYEmsReuNvsxSjKoQA+Nm4ACjEy4DwRgsvB5PNRd3c3Z6ETwxlQCCRxvi6ci8WKUhOdZB3nVKxYFwqjalS9fbGTkSCg4Fzrfhpy9TtIsS8Nmz1wH49VNNz6U8+OcpXtK3rPOtdWvOB3eJCf4bSOpM41nMMhKZIIr/qi8961NMM5HM68FdEWzwITfV5I//hMExNShvzL5y/YS89/sm4vzLF4FlDQYVT+Ha1o9SFD5zoO3ErBV9V4OxkOAQXn0P7F4zOhEuZ+3jN/Nk3Xc67ogQ6jCnTRuckVgBjOAESPDRduiHESEz+X65348R5rlAgwhwjzLwDhSOIkCBduCP+aXCDACd0LkeCMnyTyH/tCLuYvrlUkckWHthVEAEKHWR+vrLCu6tZ8noy8sKaxqa+vT6xYl8tlXhB4ucAXAxnOCCLrCSbMMXsFIOZfAOKNDTzn8T43EBO/ty26JcJwBiA6Vi7cOAovUlvXyuTCud5M4Sxw6Uc+eEsVruE4U4rxl1TGgbP9eBHgcyLr45UV1tybOacjLKz5oFO1sMbXqmpxCWs+kFVFP+sJJowyewUg5l8AwmOD5xetqHEu3bgODAzYj4CBniAsrgCIiBycJ8KFG0ehGUQrF7l44ztSbGBgAJgADSwMgUVE5HFlhbVAOCacqVv4t6pQl7gSPVthXQvhHJ6PpLCmZ814jjYwMFC1dMZimwg4AavOjTDQTa6y39Fw5uGhx6QLNzjOlD5UOtcqrKkyIM11rYLL5TgE6dnkCsQiL7yCeMH8y72gxCR9W5GPhCivaV5DW74/hHceuX9tKwiHF3TkOFPP8C8ECSIquVZYC2DzfOheWGOFDDDRHmv6JhxO0nK1GKo4F3RigQ6JRJhcAUhUA4ro1nAWgOg4izzi5bVAUjyhFlwh1AovDoiOlQvXcE4tzlRADwwM0Io19MQCEF3Q19fHy25cBkLPX6WtxRUwxIYcfkbQWcfZCmvh0DwfOhbWuLkXGNGKNbji51M2oHC4dDRsYg6OlY6kzk0hzrSWho+8AAdM/PSm6loLaZmz13dy1S3SuSn0r9mLkCZC96DOrde/uAv1rlhTfmHjoii7hc71yuXNdYt0rsmNCsnEcLbCmrss53TowhpfbvO+joBe9VUqlVABCBD1UNa5NqBwMHWsXLiGc2Nxpom/VCqJFWv8CLhcLtf6Jhxprnvf/NtY/wbxke5BnWv+VfyL0pmySaxJgxvk+WocONtWEO470JlfsaaMLZVKq4f/cCgInVsqlbq6ukQTHOptV69erRR8ANoIdwQKhQKcIgjdR319ffAvrU+jeX9//6pVq3p7e+mFXzgPQu9Z5zrG1erVq6GGIEyuAAT+FecdRwbDWeDpxZkqZuBMEz9agdvb22vxDFgsrgAFEd64wgU6Vi7c1I7Pvb29tPZMIGDO6u/vF3lED4ICYhWHvQsWLEDuQw0vYf4FJi4Rq7eN0L+jlZYuUuc6KmSFtXvRHKSH4IV1//AfQhmFNU3zYswSQxVaEaFHjs51jCsrROALwxlQENHYiYpnEHJq9erVvb29orDGxK97UOdaHnHv61i5cA3nNODc29u7atUqFNO04kN51NfXR/5FAoIgzXXvx+FfK6x5zIBu7PgMNTihx4bg2laQIBVpTq5RbmAogMhO/M6Db+gsFot0Hu8DoWdnQ0NDvK0XKRduHI/eSENdK5PL/ahj5cJtTpy9v0ag3wTT3M+3f1CuBYlY3QvNiTOPYU7rWLlwDefG4kyZRbUy0dAHSUdZJri4TPd+HP61rSAAnxOZ3woCY/SQ0rmOAacUfFDPCHcEFJzJvxh98KJc/BIRhTWuwS9C9Nhw4TrGVejfaJtcHmwuHtTbNhvOg4ODlEf4sRRwxo8X8ekKflvr+NO3ZsPZ7EVcOUZOhvIXExMV1iLF6NdBg4ODxKWt1ZjdAFeG7A2os26RzrU8Asj15pGtWHPock7rhXV/fz+NTRhu6JBAQWHt5erJ6cK1xOYR6YKk3tZwTgBnqpiLxSIyiF5TTaL5ayvFQyG6QPegzjX/JuBfEpH1lTYOlG8xkba4ouoZhbX4qT1+Ioyf2gtjM2cv6a/nvgs3bf7NkL1WWHuTK7dn9MKa1nd5Mc1v+qkgwCoafkztOxhZYvN40tGwgSw4VjqSOrdRONOKNQprMfHTrlBCgOcXndEt0rmNstfk5jueG+5frFIDZ/FCPb5URDT9pAETGRoGybI47LWtIMIFdJj1G1QrrKu6NZ8nvYU1njvXusvHEzQU1hjLUB/ok7oLN46BjFyra2VyeQLoWLlwc48zkgV4YisIneETP+3+pJLaO/EbzsDQ92Y+93HFoSA664WIsEiPdvIvrUCLfKEnP/39/dQhTXCYqoaGhuh3+UIcDoPIxcWC0NvW4tonzQWMdJj1eLbCuqpb83lSFNbYJF31Lp8gwLBFgU6HGKfomlpDhjvXJkgeiIZzVGgkE1eY+AcGBpAyxWKRHyK/qFik7Vi4OFv2cm1BZ32ChCFE6DmYTFwJleiwCXGmNKEM4jmFG1T6pZCAS/egzo3Dv1ZYCwflI56tsK7q1nye5IU1jUdkJxXWuMvHE2ra60njVxMO3LWCQB98XbhxDNxkha6VyeW+1rEKyMVdK+2nGhgYIBHitwpRvfdD18r8G7l/eYectnESaOgxGYLLl3Uoj3AGT35oTdr7oaVItIojj2wrCFzDiaznkRXW3Js5p8eOHUsDEH+lF1UAtPMM0zzGKSCS9UCHIUTow3ocA6jJFS6gw5zFFR40I4Mov5B3tKWK/2wRsOgx6cK1eAbIvttIDOfgWCUZV1RDY4sUtiZi3Zpyit77gUUibgvR5l+OiY5Gkv7lWuVArn0gRjg0z4cTJ07kr82nTyjT7mp8nIIuoJOUdfRv1l/Yzm2xL10JNOL48AGJEK/Nz7fcvr6+VatW4bNE+PILPlHR39/f1dUlvr4ETHSsXLjmX4Dsm/uGc3CskokryiMkEalHeYSvKdE1NHm5eFBvm4y9HH/QNv8CCt1HLtwI/WuFdZ4rabINuz7WWWcdXljziX/16tXia1WIYyIssQGIS+rqbSNMbGhLhMkVgEQYzyiUxQeTURCgJsAXTIUyQXyke1DnWlxxwHWsXLiGc+Q404ZpFNAgUFjTGhCf11w8qLeNw7/Lli3zvdmLQ26QMcfkho5n2wqS88Iar/UYGhoqFAp86ydn0cCkYJGzR/aUMGYvEDD/Ago9NgSX9njgCTVN/NQVdoNgJ2gOHnECJSIEGoJr9nJAdKxcuPnGmW8CwfxF4xXeasV/7+uCpN42Dpztx4s8R0BnfT6ywhquzDNBc/yECROwek3WYszC6/ZqoZD1QBd2JT+AkgImVzgi63GFj7lQbS1uUFF2Y+LPur3CfRbPAhDzLwDRY6Nerkil3OBshTUChhNZ968V1tybddPt7e2FGn+tra0rV66su8fYGgwNDW2++eaisIY0fZiL406dRJtcuICIrA8owpwm8S9uUEVh7X3hl/kXEaLHhgvXxiuAnKcfa6QTELoAABOQSURBVOIRa578a28F4bEKOuvjpBXWcOUaoru7e8qUKTVK5bWnp0yZ0t3dTc3ah/8quhg+6OjoSFthXS6Xx48fT/f9XoX1aSxPAxnZbvaKGMj6QCbMaYh/xWsrhUp0aDgDFt1HLlwbrwByngpr/jIryyO42CVT9LaWRwC53jyywppDt6awbm1t7e7ubmtr6+joKJfLHR0dbW1t5XK5s7Nz5syZuICaZWjFulwu03ussU2NW24JxtGwAYWjoceGCzd/ONMPFjl6graCAIC4RI7eNn9xZfYibGjPleURANFjw4VreQSQrbDmUNRNo25euXJlW1vb4sWLZ8yY0Tn8N2PGjJUrV+IC6jpbK9ZWWCMg9OHGBhQAVe+Awhv6ts0lzn19fQIEfmgFAdDQc9CFm8u4KpVKgM5LNElcYStjbuy1rSDeYM5B/tqKdYVbqW7u6OhoaWnxbghpaWmhPR7d3d3KWjVvmKoNIYVCgQYm/JQKxuvTWA4CHZYSYfYKQHIzUTXWv7ZibXElEMChPua4cJtkfM7lHmv78SIShBNZn4+ssObeHN0KQme9C9Jixbqtra29vR0X06YR2jdCK9wVvTf6gH95UeiiD+tNMnBzTLKe2NyW5lw5Tn6Fb2hoiF67K8DnhxZXQEMfc1y4Nl4BZN/czxbOWBLKTR5ZYc1jFXTW/WsfiIEr1xBUN8+cOZOvOnO6dfgPP15sa2vjXE6naq2ajCwUCt5PKtLAmvyL8U0uISD+jfDDJbxn8y9HI74PH/T29uLLi0IiHZp/AYseky7c+Pyra2Vy4Vzfj57oSOrcPOFsH4jhMQM66+OkFdZVCuvu7u6VK1e2trZiBbpt+A+VNy+sM7RiXSiMuhsRTETzDGRmr3A9HWZ9IBNGWTwLQMy/AESPDRdungo+gktHw+xFUNmNBIfCEY0cxJVtBZGFddXX7U2ZMuW6666jBWn+ur3MrVhXWMsOKCvYCUlm/dGMsMfsFYCYfwGIHhsuXNuiAJBztkUBdlkeAQqXTNHbWh4BZMsjDoUjGhHGlRXWFX7BFmp6KwitTHMaF1Q0Gz5ob2/HCreXm4Yz9FaQqprYQCZgsQkSgOix4cKNcCCDtkToWplcDpeOlQvXcDacOQKctrgiNOytIDwqQGd9/rXCGq5cQ6BuRjFNa9JtbW30cuvFixfTi65prwjfVO2lW1paOjs7KwQ09MAKa8CvD+tWEAAoxzUAw5kjaXHF0dBjw4VrOBvOHAFOpy2u7MeL3DugrbBeC4ULEErBB6CTIXhhTW+whlz6UgwuwHkQtmINKDiRtoGMdNO1sok5Kg8azhxJiyuOhh4bLlzD2XDmCHA6bXFlhTX3DmiXelJ5H5Tu/QjHDVuxhivXEME/aa7sruZL13xDdoWkRhwoNzCJBZyw2+QKQLI+oAhzzL8CEPMvANFjw4Ub4QQJbYnQtTK5HC4dKxdunnC2rSA8ZkBnfZy0whquXEMoC9J0ne8FFd2l7MAKazhEH9bzNHCTyWYvXE9E1gduYY75VwBi/gUgemy4cG2cBMi2ZY5D4YhGDuLKCmsRD3k+tMIa3tWnkxwkNiwlwuwVgFjhBUD02HDhWh4BZMdSQ/eC4Ww4cwQ4rUeOzrW4Co2kFdYcupzTVljDwTagAAoirNAEIHpsuHBtogLIVmhyKBzRsLjiYLpkqN42DpxtKwj3Heisz0dWWMOV+SessIaPkx9ASbTJhQuIyPoAKswx/wpAzL8ARI8NF24cBR+prWtlcuHc0LdG9uNFjiHorI8bheLIX9fw38hRsaenh9Ocy1m4ZunSpaAFwdsKVrFY7OrqUgo+AG2EOwKFwqi7uRN7enq4jzgL/nLxb1dXF/rhnZtcwALCcAYUPCZxEoTgWlwhyzgUgMviClCIyMF5IgSXg2njlcCqWCxaXAETETk4r8fVggULLK4EVjmIK1uxdq9XM9PD/2/vDJYTR4Ig6v//Kv/DXsdHh/0HHDjMRtCzqVTNknS4ZIdbfnOYSCiE6JfZrULIEN7AcGaiuLj6O+YyHPwtQPBXQHI2OlXOaAryh89ojmfILsB5Xc5cCuLeSa++PtNYy8rzCxprecyBSiiGWH0hK8PB3wIEfwUkZ6NTpcEVZN5IOIomDXLlMDszNG97IGcaa7fs5JrGWgZ/2QTTHodgvwUIDZ+A5Gx0qgceMPRqyXNBMW6SZ2HpJDZvS54Fudmyw9lJHpgrGusC9sw3aazlLguKUAxBQyAgORud6oELt17tEPlVsV/HlVl1qnCGsxNwfS9XXArilKRXPx7RWMvK8wsaa3l8b5nTA1af2BrIEIy3AMFfAcnZ6FRpNAWZM4uOoknjTLniW0FKMMbN1ddnGuv/tfWcd9JYy9fcLpxp4R5DZryyfojVF+4yHPwtQPBXQHI2OlXWSUH+8FsFGmtnKL36/KWxlpXnFzTW8jgfTjhgCNSHDxjjGeDsJMmV08jZ6FThDGcn4Pq75YpLQdwdaRrrPyg6IELDJ9CIPoHAOS83HKgcfmbVqcIZzk7ANbmap8E8mmdFruZZkat5Vj88V09j/Nfr9XL7p5tF5Or1en19fS2b6Gbe9nK5hIbPjUQ3CTw9bXbLnSGyR01/L5dL2Z1usl+hGKIzj+AsmORKKMhVQZGz0amyTjrqDsm8LZzh7ARc5+Tk6oG52jqtvMtcbb4gGutmxzy5OY21ZuCn5pkGF84iUARvnAQkz8FOtXk8Yv5OegRngfrwqcmXl5eH28K5z3k8Q15VDuTMNdaTTekZHhbewIzYhUF2LvW5Xq/3npn9FjJwFpCcjU6Vj3QFmWvoHUWTBrlymJ0Zmrc9E2f+eNEzI736cZDGWlaeX9BYy+Ofs3CPITNeWT/E6gt3GQ7+FiD4KyA5G53qmRrcgSvT+Izx0lgrqC5Wn7801u7myTWNtQz++gV07Jr9yoIhVl9Ay3DwtwDBXwHJ2ehUP6PhGy87vyr2K3M//FkH3wriDKVXXzdorGXl+QWNtTzmgCEUQ6y+kJXh4G8Bgr8CkrPRqdJoCvKHG83xDNkFOMPZCbjOycnVA3NFY+2mnFzTWMvgL5tg2uMQ7LcAoeETkJyNTvXAA4ZeLXkuKMZN8iwsncTmbcmzIPMGxlE0aRyYKxrr4suZb9JYy10WbqEYgoZAQHI2OtUDF2692iHyq2K/jiuz6lThDGcn4PperrgUxClJr348orGWlecXNNby+N4ypwesPrE1kCEYbwGCvwKSs9Gp0mgKcvNcWnYBzuty5o8X3Tvp1ddnGmtZeX5BYy2POVAJxRCrL2RlOPhbgOCvgORsdKo0uILMGwlHEWjQWBdQ4+bq6xU/EPO/tp7zTn4gZhw1+UJ+cZDgh0uEIv+IQKd64A8Q6NUOkV8V+3VcmVWnCmc4OwHX93LFD8Q4JenVj0ffpbF+4t+XEFBwi7g37fWw1YOugQzBeAsQ/BWQnI1OlcZLkB++uYXzPCtyNc+KXM2zIlfzrEquvsWlIPwyn86QDyN182+x+kckZUSMtwDBXwHJ2ehU+chekMOH1OMxcJ5nRa7mWZGreVbkap7VN8kVjbVbtulsD0HfSP3+nVl1qnCGsxNwTa7maTCP5lmRq3lW5Gqe1b1c8a0gzlB69RNMNNaycifuTQM9aHXjNZAhGG8Bgr8CkrPRqXJgFmTOHDuKJg1y5TA7MzRvC+c+Z/540RlKr378pbGWlTvBgrLD8fv36kEvw8HfAgR/BSRno1OlERHkZuucXYAznJ2A65ycXP2MXNFYuzvSqx+PaKxl5U58/QQbu2e/Oxto6A1Hzkan+hkHDPJs1m1y9QPGNpKbyqkjV44rs+pU4bwuZy4Fce+kV18naaxl5U7kZY6FzGFlVp0qnOHsBFyTq3kazKN5VuRqnhW5mmdFruZZnSBXNNZu96bzNDiB8dtQb4rxFiCrv2Muw8HfAgR/BSRno1NlnRRkLn1xFE0a5MphdmZo3hbOH+ZMY+3oNk3gNhY3RSMiIDkbnSoLmSA3D73ZBTjD2Qm4zsnJVXJ1FMmfw5lLQTwz0qv3G9/iB2Iul8uYSH//X752++8H8MMWYpJZdap8Ubwg88MWjqJJg1w5zM4MzdvCGc5OwHVOTq6Sqz7J5+fnh6sonPucxzN8WZ5prN2yTX+ZAdsub4r9FiC8cRKQnI1OlYVbkB8e5OA8z4pczbMiV/OszpQrGmv3XXr14z6XgujDh50YBu/u2t9Y/aOK/Wge/MgLH3E6rpyNThXOcHYCrsnVPA3m0TwrcjXP6jNyxaUgzl969f6KxlpW7kRebj5jgo3ds9+dDXzdnuHI2ehUybNhfvAmE87zrMjVPCtyNc+KXM2zIlfzrA7MFY21Y990juOBBmy7vCn2W4Cs/s61DAd/CxD8FZCcjU6V9UqQ+aNYR9GkQa4cZmeG5m3hvBxnGmu3bNMEfWNxUzRAApKz0amygApy85CfXYAznJ2A65ycXCVXR5H8OZy5FMQzI716v0FjLSt34udM7DFsxruzn0tQDEfORqdKI2KYuQTFYbRokCtH2ZmheVs49znzk+bOUJrG+g+K1UHI0SFYUAoQ/BWQnI1OlQOVIHPG2lE0aZArh9mZoXlbOMPZCbi+lxwaa6ckvXq/wRlrWbkT96aBHrS68RrIEIy3AMFfAcnZ6FRpRAS52TpnF+AMZyfgOicnV8lVnySXgjhD6dWPvzTWsnInWFB2OLg0wnDkbHSqHKgMc+tigOwCnOHsBFzn5OQquTqKJJydJLlyGjkbneqBnGms3bJNZ3sONGDb5U2x3wJk9XeuZTj4W4Dgr4DkbHSqrFeCzCcDjqJJg1w5zM4MzdvCeTnOT2///Xu9/fvv1tv7+7trr3pJj/n165d0Eb5tKb29vZWqP/n7+7tXvaTnYb9C4ax0p0SpOkw4i5IEuRKKkhzdP0SpkqvX19dBxlEIGrkSipIc3T9EqTpM1qvC6u3tjVyJSUmO7v+eufrnn3/Ic/HoBHnmjLW/F9o07yA3FjfFmUUBydnoVDkzIcjNc2nZBTjD2Qm4zsnJVXJ1FMmfw5k/XvTMSK/eb9BYy8qd+DkTewyb8e7s55pyw5Gz0anSiBhmril3GC0a5MpRdmZo3hbOfc401s5Qmsb6D4rVQcjRIVhQChD8FZCcjU6VA5Ugc8baUTRpkCuH2ZmheVs4w9kJuL6XHL4VxClJr95vcMZaVu7EvWmgB61uvAYyBOMtQPBXQHI2OlUaEUFuts7ZBTjD2Qm4zsnJVXJ1FEk4O8kT5IrGuhj65yZBL1xoNAUkZ6NTPcGCIkpDZBqM13FlVp0qnOHsBFyTq3kazKN5Vj88VzTWHpVN51gwwTZSv1tXQ8LZSZIrp5Gz0anCGc5OwDW5mqfBPJpndS9XXAriDKVXP5FHYy0rd+LeNNCDVjdeAxmC8RYg+CsgORudKgdmQeZSEEfRpEGuHGZnhuZt4dznzB8vOkPp1Y+/NNaycidYUHY4+JYMw5Gz0alyoDLMfBLiMFo0yJWj7MzQvC2c4ewEXN9LDo21U5JevrEefl+v18vtn24WkavX6/X19bVsopt5206V/Qpy08HsApzh7ARc5+TkKrk6iiScnSS5cho5G50qnPucX15eHh674dznPJ4hp/1Azk96xXmXuXrgC9Lr+WIQ7PdyuRQIfpM3TqKR50KnyjwS5IcHGzjPsyJX86zI1TwrcjXPilzNszpBrrgURB8+7MQIwe6u/Y3VP6rYj+bBB818xOm4cjY6VTjD2Qm4JlfzNJhH86zI1TwrcjXP6ofnisbao7LpHAsm2EaKbwVxFj0a5MpZ5jnYqcIZzk7ANbmap8E8mmd1L1d8K4gzlF79xCWNtazciXvTQA9a3XgNZAjGW4Dgr4DkbHSqHJgFufk9GNkFOMPZCbjOyclVctUnyR8vOkPp1Y+/NNaycidYUHY4+FYQw5Gz0alyoDLMDy5PgvM8K3I1z4pczbMiV/Os7uWKxtoZStNY/0GxOgg5OsS9aaCHMV6hyKw6VRZuQeaMpqNo0iBXDrMzQ/O2cIazE3Cdk5OrZ8oVl4J4KqRX7684Yy0rd+LnTOwxbMa7s58z9IYjZ6NTPdMBknlkkdnk6gfIbSQ3ldNOnh1XZtWpwhnOTsD1N8kVjbWbsulsDxN7I9X7cz04O0ly5TRyNjpVOMPZCbgmV/M0mEfzrMjVPKsT5IrG2u3edJ4GJzB+G+pNMd4ChDNtApKz0akyjwS5eXFLdgHOcHYCrnNycpVc9UlyKYgzlF79+MsPxIylo/6fv879BF9gXgbMeAsQfhBHQHI2OlXmkSDzgziOokmDXDnMzgzN28K5z/n5+flh2uHc5zye4cvyTGPtlm36ywzYdnlT7LcAocEVkJyNTpWFW5AfHuTgPM+KXM2zIlfzrM6UKxpr91169eM+l4Low4edGAbv7trfWP2jiv1oHny1GR/5Oa6cjU4VznB2Aq7J1TwN5tE8K3I1z+ozcsWlIM5fevX+isZaVu5EXm4+Y4KN3bPfnQ18O4fhyNnoVMmzYX7wJhPO86zI1TwrcjXPilzNsyJX86wOzBWNtWPfdI7jgQZsu7wp9luArP7OtQwHfwsQ/BWQnI1OlfVKkPkjUUfRpEGuHGZnhuZt4bwcZxprt2zTBH1jcVM0QAKSs9GpsoAKcvOQn12AM5ydgOucnFwlV0eR/DmcuRTEMyO9er/xL08JkuXfGT6yAAAAAElFTkSuQmCC;" vertex="1" parent="1">
          <mxGeometry x="-70" y="40" width="968" height="489" as="geometry" />
        </mxCell>
      </root>
    </mxGraphModel>
  </diagram>
</mxfile>
